<svg xmlns="http://www.w3.org/2000/svg" xmlns:xlink="http://www.w3.org/1999/xlink" width="512" zoomAndPan="magnify" viewBox="0 0 384 383.999986" height="512" preserveAspectRatio="xMidYMid meet" version="1.0"><defs><clipPath id="id1"><path d="M 52.730469 38.398438 L 330.980469 38.398438 L 330.980469 345.898438 L 52.730469 345.898438 Z M 52.730469 38.398438 " clip-rule="nonzero"/></clipPath></defs><g clip-path="url(#id1)"><path fill="#ffffff" d="M 138.980469 177.421875 C 125.953125 176.59375 115.210938 187.359375 116.03125 200.417969 C 116.710938 211.183594 125.429688 219.917969 136.175781 220.601562 C 149.207031 221.425781 159.949219 210.664062 159.125 197.605469 C 158.445312 186.839844 149.726562 178.101562 138.980469 177.421875 Z M 330.976562 332.714844 L 329.113281 345.792969 C 323.054688 345.792969 317.925781 345.328125 311.867188 344.859375 C 277.84375 342.523438 259.667969 333.652344 239.160156 304.699219 C 221.917969 280.878906 205.136719 251.457031 190.222656 227.644531 C 185.90625 220.722656 182.289062 216.410156 177.289062 213.769531 C 174.277344 212.183594 173.433594 208.28125 175.570312 205.625 C 176.578125 204.375 177.550781 203.101562 178.484375 201.808594 C 182.914062 195.695312 189.03125 191.015625 195.976562 188.066406 C 200.605469 186.097656 204.691406 183.597656 208.402344 180.476562 C 226.574219 166.929688 234.03125 148.25 234.03125 123.035156 C 234.03125 73.066406 200.945312 54.847656 165.054688 54.847656 C 151.539062 54.847656 62.933594 54.605469 52.734375 54.308594 L 52.734375 38.507812 L 171.582031 38.507812 C 205.605469 38.507812 228.441406 42.707031 246.152344 54.382812 C 265.257812 66.527344 277.84375 87.542969 277.84375 116.027344 C 277.84375 156.1875 252.210938 181.410156 217.722656 196.355469 C 226.109375 210.828125 246.152344 242.121094 260.132812 263.132812 C 277.378906 287.886719 286.234375 299.5625 296.953125 311.234375 C 309.539062 324.777344 320.257812 329.917969 330.976562 332.714844 " fill-opacity="1" fill-rule="nonzero"/></g></svg>