<svg xmlns="http://www.w3.org/2000/svg" xmlns:xlink="http://www.w3.org/1999/xlink" width="512" zoomAndPan="magnify" viewBox="0 0 384 383.999986" height="512" preserveAspectRatio="xMidYMid meet" version="1.0"><defs><clipPath id="id1"><path d="M 97 114 L 287.363281 114 L 287.363281 318.648438 L 97 318.648438 Z M 97 114 " clip-rule="nonzero"/></clipPath></defs><path fill="#ffffff" d="M 192 0 C 85.921875 0 0 85.921875 0 192 C 0 298.078125 85.921875 384 192 384 C 298.078125 384 384 298.078125 384 192 C 384 85.921875 298.078125 0 192 0 Z M 192 345.601562 C 107.136719 345.601562 38.398438 276.863281 38.398438 192 C 38.398438 107.136719 107.136719 38.398438 192 38.398438 C 276.863281 38.398438 345.601562 107.136719 345.601562 192 C 345.601562 276.863281 276.863281 345.601562 192 345.601562 Z M 192 345.601562 " fill-opacity="1" fill-rule="nonzero"/><path fill="#ffffff" d="M 103.1875 272.628906 C 102.894531 272.628906 102.578125 272.609375 102.273438 272.558594 C 99.417969 272.0625 97.492188 269.34375 98 266.484375 L 131.308594 75.128906 C 132.066406 70.707031 135.414062 67.335938 139.8125 66.550781 C 144.265625 65.71875 148.507812 67.746094 150.761719 71.613281 L 180.671875 123.078125 C 182.132812 125.589844 181.273438 128.804688 178.757812 130.265625 C 176.25 131.703125 173.019531 130.875 171.558594 128.351562 L 141.65625 76.894531 L 108.355469 268.273438 C 107.914062 270.824219 105.691406 272.628906 103.1875 272.628906 Z M 103.1875 272.628906 " fill-opacity="1" fill-rule="nonzero"/><g clip-path="url(#id1)"><path fill="#ffffff" d="M 192.636719 318.488281 C 187.746094 318.488281 182.851562 317.261719 178.398438 314.804688 L 100.628906 272.023438 C 99.179688 271.222656 98.199219 269.792969 97.957031 268.167969 C 97.726562 266.527344 98.273438 264.890625 99.441406 263.714844 L 244.894531 118.046875 C 247.703125 115.253906 251.765625 114.296875 255.503906 115.453125 C 259.261719 116.652344 262.027344 119.824219 262.714844 123.730469 L 287.300781 266.527344 C 287.679688 268.734375 286.613281 270.929688 284.648438 272.011719 L 206.878906 314.804688 C 202.425781 317.261719 197.53125 318.488281 192.636719 318.488281 Z M 111.828125 266.179688 L 183.480469 305.601562 C 189.21875 308.761719 196.058594 308.753906 201.796875 305.601562 L 276.28125 264.617188 L 252.324219 125.507812 C 252.324219 125.472656 252.316406 125.453125 252.316406 125.453125 Z M 111.828125 266.179688 " fill-opacity="1" fill-rule="nonzero"/></g><path fill="#ffffff" d="M 103.175781 272.628906 C 102.367188 272.628906 101.546875 272.441406 100.765625 272.054688 C 98.179688 270.730469 97.15625 267.558594 98.492188 264.984375 L 183.511719 99.886719 C 185.28125 96.441406 188.785156 94.246094 192.648438 94.171875 C 196.847656 94.132812 200.101562 96.148438 202.015625 99.519531 L 227.644531 144.789062 C 229.074219 147.320312 228.179688 150.515625 225.65625 151.953125 C 223.128906 153.339844 219.910156 152.488281 218.476562 149.96875 L 192.847656 104.699219 L 107.851562 269.773438 C 106.925781 271.589844 105.082031 272.628906 103.175781 272.628906 Z M 103.175781 272.628906 " fill-opacity="1" fill-rule="nonzero"/></svg>