<svg xmlns="http://www.w3.org/2000/svg" xmlns:xlink="http://www.w3.org/1999/xlink" width="512" zoomAndPan="magnify" viewBox="0 0 384 383.999986" height="512" preserveAspectRatio="xMidYMid meet" version="1.0"><defs><clipPath id="id1"><path d="M 78.226562 146 L 204 146 L 204 261 L 78.226562 261 Z M 78.226562 146 " clip-rule="nonzero"/></clipPath><clipPath id="id2"><path d="M 180 123 L 305.476562 123 L 305.476562 238 L 180 238 Z M 180 123 " clip-rule="nonzero"/></clipPath><clipPath id="id3"><path d="M 135 78.226562 L 249 78.226562 L 249 305.476562 L 135 305.476562 Z M 135 78.226562 " clip-rule="nonzero"/></clipPath></defs><path fill="#ffffff" d="M 192 0 C 85.921875 0 0 85.921875 0 192 C 0 298.078125 85.921875 384 192 384 C 298.078125 384 384 298.078125 384 192 C 384 85.921875 298.078125 0 192 0 Z M 192 345.601562 C 107.136719 345.601562 38.398438 276.863281 38.398438 192 C 38.398438 107.136719 107.136719 38.398438 192 38.398438 C 276.863281 38.398438 345.601562 107.136719 345.601562 192 C 345.601562 276.863281 276.863281 345.601562 192 345.601562 Z M 192 345.601562 " fill-opacity="1" fill-rule="nonzero"/><g clip-path="url(#id1)"><path fill="#ffffff" d="M 146.402344 260.027344 L 112.3125 260.027344 C 111.199219 260.027344 110.085938 259.96875 108.972656 259.859375 C 107.863281 259.75 106.761719 259.585938 105.667969 259.367188 C 104.570312 259.148438 103.492188 258.875 102.421875 258.550781 C 101.355469 258.226562 100.304688 257.851562 99.273438 257.421875 C 98.242188 256.996094 97.238281 256.519531 96.253906 255.992188 C 95.269531 255.464844 94.3125 254.890625 93.382812 254.273438 C 92.457031 253.652344 91.5625 252.988281 90.699219 252.277344 C 89.835938 251.570312 89.011719 250.820312 88.222656 250.03125 C 87.429688 249.242188 86.683594 248.417969 85.976562 247.554688 C 85.265625 246.691406 84.601562 245.796875 83.980469 244.871094 C 83.363281 243.941406 82.789062 242.984375 82.261719 242 C 81.734375 241.015625 81.257812 240.007812 80.832031 238.980469 C 80.402344 237.949219 80.027344 236.898438 79.703125 235.832031 C 79.378906 234.761719 79.105469 233.679688 78.886719 232.585938 C 78.667969 231.492188 78.503906 230.390625 78.394531 229.28125 C 78.285156 228.167969 78.226562 227.054688 78.226562 225.9375 L 78.226562 180.488281 C 78.226562 179.375 78.285156 178.261719 78.394531 177.148438 C 78.503906 176.039062 78.667969 174.9375 78.886719 173.839844 C 79.105469 172.746094 79.378906 171.664062 79.703125 170.597656 C 80.027344 169.53125 80.402344 168.480469 80.832031 167.449219 C 81.257812 166.417969 81.734375 165.410156 82.261719 164.425781 C 82.789062 163.441406 83.363281 162.488281 83.980469 161.558594 C 84.601562 160.632812 85.265625 159.734375 85.976562 158.875 C 86.683594 158.011719 87.429688 157.183594 88.222656 156.394531 C 89.011719 155.605469 89.835938 154.859375 90.699219 154.148438 C 91.5625 153.441406 92.457031 152.777344 93.382812 152.15625 C 94.3125 151.535156 95.269531 150.964844 96.253906 150.4375 C 97.238281 149.910156 98.242188 149.433594 99.273438 149.003906 C 100.304688 148.578125 101.355469 148.203125 102.421875 147.878906 C 103.492188 147.550781 104.570312 147.28125 105.667969 147.0625 C 106.761719 146.84375 107.863281 146.679688 108.972656 146.570312 C 110.085938 146.457031 111.199219 146.402344 112.3125 146.402344 L 191.851562 146.402344 C 192.597656 146.402344 193.335938 146.476562 194.070312 146.621094 C 194.800781 146.765625 195.511719 146.980469 196.199219 147.265625 C 196.890625 147.550781 197.542969 147.902344 198.164062 148.316406 C 198.785156 148.730469 199.359375 149.203125 199.886719 149.730469 C 200.414062 150.257812 200.886719 150.832031 201.300781 151.453125 C 201.714844 152.070312 202.0625 152.726562 202.347656 153.417969 C 202.636719 154.105469 202.851562 154.816406 202.996094 155.546875 C 203.140625 156.28125 203.214844 157.019531 203.214844 157.765625 C 203.214844 158.511719 203.140625 159.25 202.996094 159.980469 C 202.851562 160.710938 202.636719 161.421875 202.347656 162.113281 C 202.0625 162.800781 201.714844 163.457031 201.300781 164.078125 C 200.886719 164.699219 200.414062 165.269531 199.886719 165.800781 C 199.359375 166.328125 198.785156 166.796875 198.164062 167.210938 C 197.542969 167.625 196.890625 167.976562 196.199219 168.261719 C 195.511719 168.546875 194.800781 168.761719 194.070312 168.910156 C 193.335938 169.054688 192.597656 169.125 191.851562 169.125 L 112.3125 169.125 C 111.566406 169.125 110.828125 169.199219 110.097656 169.34375 C 109.367188 169.492188 108.65625 169.707031 107.964844 169.992188 C 107.277344 170.277344 106.621094 170.628906 106 171.042969 C 105.382812 171.457031 104.808594 171.925781 104.28125 172.453125 C 103.753906 172.980469 103.28125 173.554688 102.867188 174.175781 C 102.453125 174.796875 102.101562 175.453125 101.816406 176.140625 C 101.53125 176.832031 101.316406 177.539062 101.171875 178.273438 C 101.023438 179.003906 100.953125 179.742188 100.953125 180.488281 L 100.953125 225.9375 C 100.953125 226.683594 101.023438 227.425781 101.171875 228.15625 C 101.316406 228.886719 101.53125 229.597656 101.816406 230.289062 C 102.101562 230.976562 102.453125 231.632812 102.867188 232.253906 C 103.28125 232.871094 103.753906 233.445312 104.28125 233.972656 C 104.808594 234.5 105.382812 234.972656 106 235.386719 C 106.621094 235.800781 107.277344 236.152344 107.964844 236.4375 C 108.65625 236.722656 109.367188 236.9375 110.097656 237.082031 C 110.828125 237.230469 111.566406 237.300781 112.3125 237.300781 L 146.402344 237.300781 C 147.148438 237.300781 147.886719 237.375 148.617188 237.519531 C 149.351562 237.664062 150.0625 237.882812 150.75 238.167969 C 151.4375 238.453125 152.09375 238.800781 152.714844 239.214844 C 153.335938 239.632812 153.910156 240.101562 154.4375 240.628906 C 154.964844 241.15625 155.433594 241.730469 155.847656 242.351562 C 156.265625 242.972656 156.613281 243.625 156.898438 244.316406 C 157.183594 245.003906 157.402344 245.714844 157.546875 246.449219 C 157.691406 247.179688 157.765625 247.917969 157.765625 248.664062 C 157.765625 249.410156 157.691406 250.148438 157.546875 250.882812 C 157.402344 251.613281 157.183594 252.324219 156.898438 253.011719 C 156.613281 253.703125 156.265625 254.355469 155.847656 254.976562 C 155.433594 255.597656 154.964844 256.171875 154.4375 256.699219 C 153.910156 257.226562 153.335938 257.699219 152.714844 258.113281 C 152.09375 258.527344 151.4375 258.875 150.75 259.160156 C 150.0625 259.449219 149.351562 259.664062 148.617188 259.808594 C 147.886719 259.953125 147.148438 260.027344 146.402344 260.027344 Z M 146.402344 260.027344 " fill-opacity="1" fill-rule="nonzero"/></g><g clip-path="url(#id2)"><path fill="#ffffff" d="M 271.390625 237.300781 L 191.851562 237.300781 C 191.105469 237.300781 190.367188 237.230469 189.636719 237.082031 C 188.902344 236.9375 188.191406 236.722656 187.503906 236.4375 C 186.8125 236.152344 186.160156 235.800781 185.539062 235.386719 C 184.917969 234.972656 184.34375 234.5 183.816406 233.972656 C 183.289062 233.445312 182.820312 232.871094 182.402344 232.253906 C 181.988281 231.632812 181.640625 230.976562 181.355469 230.289062 C 181.070312 229.597656 180.851562 228.886719 180.707031 228.15625 C 180.5625 227.425781 180.488281 226.683594 180.488281 225.9375 C 180.488281 225.191406 180.5625 224.453125 180.707031 223.722656 C 180.851562 222.992188 181.070312 222.28125 181.355469 221.589844 C 181.640625 220.902344 181.988281 220.246094 182.402344 219.625 C 182.820312 219.007812 183.289062 218.433594 183.816406 217.90625 C 184.34375 217.378906 184.917969 216.90625 185.539062 216.492188 C 186.160156 216.078125 186.8125 215.726562 187.503906 215.441406 C 188.191406 215.15625 188.902344 214.941406 189.636719 214.796875 C 190.367188 214.648438 191.105469 214.578125 191.851562 214.578125 L 271.390625 214.578125 C 272.136719 214.578125 272.875 214.503906 273.605469 214.359375 C 274.335938 214.214844 275.046875 213.996094 275.738281 213.710938 C 276.425781 213.425781 277.082031 213.078125 277.703125 212.660156 C 278.324219 212.246094 278.894531 211.777344 279.425781 211.25 C 279.953125 210.722656 280.421875 210.148438 280.835938 209.527344 C 281.25 208.90625 281.601562 208.25 281.886719 207.5625 C 282.171875 206.875 282.386719 206.164062 282.535156 205.429688 C 282.679688 204.699219 282.75 203.960938 282.75 203.214844 L 282.75 157.765625 C 282.75 157.019531 282.679688 156.28125 282.535156 155.546875 C 282.386719 154.816406 282.171875 154.105469 281.886719 153.417969 C 281.601562 152.726562 281.25 152.070312 280.835938 151.453125 C 280.421875 150.832031 279.953125 150.257812 279.425781 149.730469 C 278.894531 149.203125 278.324219 148.730469 277.703125 148.316406 C 277.082031 147.902344 276.425781 147.550781 275.738281 147.265625 C 275.046875 146.980469 274.335938 146.765625 273.605469 146.621094 C 272.875 146.476562 272.136719 146.402344 271.390625 146.402344 L 237.300781 146.402344 C 236.554688 146.402344 235.816406 146.328125 235.085938 146.183594 C 234.351562 146.039062 233.644531 145.824219 232.953125 145.535156 C 232.265625 145.25 231.609375 144.902344 230.988281 144.488281 C 230.367188 144.074219 229.792969 143.601562 229.265625 143.074219 C 228.738281 142.546875 228.269531 141.972656 227.855469 141.351562 C 227.441406 140.730469 227.089844 140.078125 226.804688 139.386719 C 226.519531 138.699219 226.304688 137.988281 226.15625 137.257812 C 226.011719 136.523438 225.9375 135.785156 225.9375 135.039062 C 225.9375 134.292969 226.011719 133.554688 226.15625 132.824219 C 226.304688 132.089844 226.519531 131.378906 226.804688 130.691406 C 227.089844 130 227.441406 129.347656 227.855469 128.726562 C 228.269531 128.105469 228.738281 127.53125 229.265625 127.003906 C 229.792969 126.476562 230.367188 126.007812 230.988281 125.589844 C 231.609375 125.175781 232.265625 124.828125 232.953125 124.542969 C 233.644531 124.257812 234.351562 124.039062 235.085938 123.894531 C 235.816406 123.75 236.554688 123.675781 237.300781 123.675781 L 271.390625 123.675781 C 272.503906 123.679688 273.617188 123.734375 274.730469 123.84375 C 275.839844 123.953125 276.941406 124.117188 278.039062 124.335938 C 279.132812 124.554688 280.210938 124.828125 281.28125 125.152344 C 282.347656 125.476562 283.398438 125.851562 284.429688 126.28125 C 285.460938 126.707031 286.46875 127.183594 287.453125 127.710938 C 288.433594 128.238281 289.390625 128.8125 290.320312 129.433594 C 291.246094 130.050781 292.140625 130.714844 293.003906 131.425781 C 293.867188 132.132812 294.695312 132.882812 295.484375 133.671875 C 296.273438 134.460938 297.019531 135.285156 297.730469 136.148438 C 298.4375 137.011719 299.101562 137.90625 299.722656 138.835938 C 300.34375 139.761719 300.914062 140.71875 301.441406 141.703125 C 301.96875 142.6875 302.445312 143.695312 302.871094 144.726562 C 303.300781 145.753906 303.675781 146.804688 304 147.875 C 304.324219 148.941406 304.597656 150.023438 304.816406 151.117188 C 305.035156 152.210938 305.199219 153.3125 305.308594 154.425781 C 305.421875 155.535156 305.476562 156.648438 305.476562 157.765625 L 305.476562 203.214844 C 305.476562 204.332031 305.421875 205.445312 305.308594 206.554688 C 305.199219 207.664062 305.035156 208.769531 304.816406 209.863281 C 304.597656 210.957031 304.324219 212.039062 304 213.105469 C 303.675781 214.171875 303.300781 215.222656 302.871094 216.253906 C 302.445312 217.285156 301.96875 218.292969 301.441406 219.277344 C 300.914062 220.261719 300.34375 221.214844 299.722656 222.144531 C 299.101562 223.070312 298.4375 223.96875 297.730469 224.828125 C 297.019531 225.691406 296.273438 226.519531 295.484375 227.308594 C 294.695312 228.097656 293.867188 228.847656 293.003906 229.554688 C 292.140625 230.261719 291.246094 230.925781 290.320312 231.546875 C 289.390625 232.167969 288.433594 232.742188 287.453125 233.265625 C 286.46875 233.792969 285.460938 234.269531 284.429688 234.699219 C 283.398438 235.125 282.347656 235.5 281.28125 235.828125 C 280.210938 236.152344 279.132812 236.421875 278.039062 236.640625 C 276.941406 236.859375 275.839844 237.023438 274.730469 237.132812 C 273.617188 237.246094 272.503906 237.300781 271.390625 237.300781 Z M 271.390625 237.300781 " fill-opacity="1" fill-rule="nonzero"/></g><g clip-path="url(#id3)"><path fill="#ffffff" d="M 214.578125 305.476562 L 169.125 305.476562 C 168.011719 305.476562 166.898438 305.421875 165.785156 305.308594 C 164.675781 305.199219 163.574219 305.035156 162.480469 304.816406 C 161.382812 304.597656 160.304688 304.324219 159.234375 304 C 158.167969 303.675781 157.117188 303.300781 156.085938 302.871094 C 155.054688 302.445312 154.050781 301.96875 153.066406 301.441406 C 152.082031 300.914062 151.125 300.34375 150.195312 299.722656 C 149.269531 299.101562 148.375 298.4375 147.511719 297.730469 C 146.648438 297.019531 145.824219 296.273438 145.035156 295.484375 C 144.242188 294.695312 143.496094 293.867188 142.789062 293.003906 C 142.078125 292.140625 141.414062 291.246094 140.792969 290.320312 C 140.175781 289.390625 139.601562 288.433594 139.074219 287.453125 C 138.546875 286.46875 138.070312 285.460938 137.644531 284.429688 C 137.214844 283.398438 136.839844 282.347656 136.515625 281.28125 C 136.191406 280.210938 135.917969 279.132812 135.699219 278.035156 C 135.480469 276.941406 135.316406 275.839844 135.207031 274.730469 C 135.097656 273.617188 135.039062 272.503906 135.039062 271.390625 L 135.039062 214.578125 C 135.039062 213.460938 135.097656 212.347656 135.207031 211.238281 C 135.316406 210.125 135.480469 209.023438 135.699219 207.929688 C 135.917969 206.835938 136.191406 205.753906 136.515625 204.683594 C 136.839844 203.617188 137.214844 202.566406 137.644531 201.539062 C 138.070312 200.507812 138.546875 199.5 139.074219 198.515625 C 139.601562 197.53125 140.175781 196.574219 140.792969 195.648438 C 141.414062 194.71875 142.078125 193.824219 142.789062 192.960938 C 143.496094 192.097656 144.242188 191.273438 145.035156 190.484375 C 145.824219 189.695312 146.648438 188.945312 147.511719 188.238281 C 148.375 187.527344 149.269531 186.863281 150.195312 186.246094 C 151.125 185.625 152.082031 185.050781 153.066406 184.523438 C 154.050781 183.996094 155.054688 183.519531 156.085938 183.09375 C 157.117188 182.664062 158.167969 182.289062 159.234375 181.964844 C 160.304688 181.640625 161.382812 181.367188 162.480469 181.148438 C 163.574219 180.929688 164.675781 180.765625 165.785156 180.65625 C 166.898438 180.546875 168.011719 180.492188 169.125 180.488281 L 214.578125 180.488281 C 215.324219 180.488281 216.0625 180.417969 216.792969 180.269531 C 217.523438 180.125 218.234375 179.910156 218.925781 179.625 C 219.613281 179.339844 220.269531 178.988281 220.890625 178.574219 C 221.511719 178.160156 222.082031 177.6875 222.613281 177.160156 C 223.140625 176.632812 223.609375 176.058594 224.023438 175.441406 C 224.4375 174.820312 224.789062 174.164062 225.074219 173.476562 C 225.359375 172.785156 225.574219 172.074219 225.722656 171.34375 C 225.867188 170.613281 225.9375 169.871094 225.9375 169.125 L 225.9375 112.3125 C 225.9375 111.566406 225.867188 110.828125 225.722656 110.097656 C 225.574219 109.367188 225.359375 108.65625 225.074219 107.964844 C 224.789062 107.277344 224.4375 106.621094 224.023438 106 C 223.609375 105.382812 223.140625 104.808594 222.613281 104.28125 C 222.082031 103.753906 221.511719 103.28125 220.890625 102.867188 C 220.269531 102.453125 219.613281 102.101562 218.925781 101.816406 C 218.234375 101.53125 217.523438 101.316406 216.792969 101.171875 C 216.0625 101.023438 215.324219 100.953125 214.578125 100.953125 L 169.125 100.953125 C 168.378906 100.953125 167.640625 101.023438 166.910156 101.171875 C 166.179688 101.316406 165.46875 101.53125 164.777344 101.816406 C 164.089844 102.101562 163.433594 102.453125 162.8125 102.867188 C 162.195312 103.28125 161.621094 103.753906 161.09375 104.28125 C 160.566406 104.808594 160.09375 105.382812 159.679688 106 C 159.265625 106.621094 158.914062 107.277344 158.628906 107.964844 C 158.34375 108.65625 158.128906 109.367188 157.984375 110.097656 C 157.835938 110.828125 157.765625 111.566406 157.765625 112.3125 L 157.765625 157.765625 C 157.765625 158.511719 157.691406 159.25 157.546875 159.980469 C 157.402344 160.710938 157.183594 161.421875 156.898438 162.113281 C 156.613281 162.800781 156.265625 163.457031 155.847656 164.078125 C 155.433594 164.699219 154.964844 165.269531 154.4375 165.800781 C 153.910156 166.328125 153.335938 166.796875 152.714844 167.210938 C 152.09375 167.625 151.4375 167.976562 150.75 168.261719 C 150.0625 168.546875 149.351562 168.761719 148.617188 168.910156 C 147.886719 169.054688 147.148438 169.125 146.402344 169.125 C 145.65625 169.125 144.917969 169.054688 144.183594 168.910156 C 143.453125 168.761719 142.742188 168.546875 142.054688 168.261719 C 141.363281 167.976562 140.710938 167.625 140.089844 167.210938 C 139.46875 166.796875 138.894531 166.328125 138.367188 165.800781 C 137.839844 165.269531 137.367188 164.699219 136.953125 164.078125 C 136.539062 163.457031 136.191406 162.800781 135.902344 162.113281 C 135.617188 161.421875 135.402344 160.710938 135.257812 159.980469 C 135.113281 159.25 135.039062 158.511719 135.039062 157.765625 L 135.039062 112.3125 C 135.039062 111.199219 135.097656 110.085938 135.207031 108.972656 C 135.316406 107.863281 135.480469 106.761719 135.699219 105.667969 C 135.917969 104.570312 136.191406 103.492188 136.515625 102.421875 C 136.839844 101.355469 137.214844 100.304688 137.644531 99.273438 C 138.070312 98.242188 138.546875 97.238281 139.074219 96.253906 C 139.601562 95.269531 140.175781 94.3125 140.792969 93.382812 C 141.414062 92.457031 142.078125 91.5625 142.789062 90.699219 C 143.496094 89.835938 144.242188 89.011719 145.035156 88.222656 C 145.824219 87.429688 146.648438 86.683594 147.511719 85.976562 C 148.375 85.265625 149.269531 84.601562 150.195312 83.980469 C 151.125 83.363281 152.082031 82.789062 153.066406 82.261719 C 154.050781 81.734375 155.054688 81.257812 156.085938 80.832031 C 157.117188 80.402344 158.167969 80.027344 159.234375 79.703125 C 160.304688 79.378906 161.382812 79.105469 162.480469 78.886719 C 163.574219 78.667969 164.675781 78.503906 165.785156 78.394531 C 166.898438 78.285156 168.011719 78.226562 169.125 78.226562 L 214.578125 78.226562 C 215.691406 78.226562 216.804688 78.285156 217.917969 78.394531 C 219.027344 78.503906 220.128906 78.667969 221.226562 78.886719 C 222.320312 79.105469 223.398438 79.378906 224.46875 79.703125 C 225.535156 80.027344 226.585938 80.402344 227.617188 80.832031 C 228.648438 81.257812 229.65625 81.734375 230.640625 82.261719 C 231.621094 82.789062 232.578125 83.363281 233.507812 83.980469 C 234.433594 84.601562 235.328125 85.265625 236.191406 85.976562 C 237.054688 86.683594 237.882812 87.429688 238.671875 88.222656 C 239.460938 89.011719 240.207031 89.835938 240.917969 90.699219 C 241.625 91.5625 242.289062 92.457031 242.910156 93.382812 C 243.53125 94.3125 244.101562 95.269531 244.628906 96.253906 C 245.15625 97.238281 245.632812 98.242188 246.058594 99.273438 C 246.488281 100.304688 246.863281 101.355469 247.1875 102.421875 C 247.511719 103.492188 247.785156 104.570312 248.003906 105.667969 C 248.222656 106.761719 248.386719 107.863281 248.496094 108.972656 C 248.609375 110.085938 248.664062 111.199219 248.664062 112.3125 L 248.664062 169.125 C 248.664062 170.242188 248.609375 171.355469 248.496094 172.46875 C 248.386719 173.578125 248.222656 174.679688 248.003906 175.773438 C 247.785156 176.867188 247.511719 177.949219 247.1875 179.019531 C 246.863281 180.085938 246.488281 181.136719 246.058594 182.167969 C 245.632812 183.195312 245.15625 184.203125 244.628906 185.1875 C 244.101562 186.171875 243.53125 187.128906 242.910156 188.058594 C 242.289062 188.984375 241.625 189.878906 240.917969 190.742188 C 240.207031 191.605469 239.460938 192.429688 238.671875 193.21875 C 237.882812 194.007812 237.054688 194.757812 236.191406 195.464844 C 235.328125 196.175781 234.433594 196.839844 233.507812 197.460938 C 232.578125 198.078125 231.621094 198.652344 230.640625 199.179688 C 229.65625 199.707031 228.648438 200.183594 227.617188 200.609375 C 226.585938 201.039062 225.535156 201.414062 224.46875 201.738281 C 223.398438 202.0625 222.320312 202.335938 221.226562 202.554688 C 220.128906 202.773438 219.027344 202.9375 217.917969 203.046875 C 216.804688 203.15625 215.691406 203.214844 214.578125 203.214844 L 169.125 203.214844 C 168.378906 203.214844 167.640625 203.289062 166.910156 203.433594 C 166.179688 203.578125 165.46875 203.792969 164.777344 204.078125 C 164.089844 204.363281 163.433594 204.714844 162.8125 205.128906 C 162.195312 205.542969 161.621094 206.015625 161.09375 206.542969 C 160.566406 207.070312 160.09375 207.644531 159.679688 208.265625 C 159.265625 208.882812 158.914062 209.539062 158.628906 210.230469 C 158.34375 210.917969 158.128906 211.628906 157.984375 212.359375 C 157.835938 213.09375 157.765625 213.832031 157.765625 214.578125 L 157.765625 271.390625 C 157.765625 272.136719 157.835938 272.875 157.984375 273.605469 C 158.128906 274.335938 158.34375 275.046875 158.628906 275.738281 C 158.914062 276.425781 159.265625 277.082031 159.679688 277.703125 C 160.09375 278.324219 160.566406 278.894531 161.09375 279.421875 C 161.621094 279.953125 162.195312 280.421875 162.8125 280.835938 C 163.433594 281.25 164.089844 281.601562 164.777344 281.886719 C 165.46875 282.171875 166.179688 282.386719 166.910156 282.535156 C 167.640625 282.679688 168.378906 282.75 169.125 282.75 L 214.578125 282.75 C 215.324219 282.75 216.0625 282.679688 216.792969 282.535156 C 217.523438 282.386719 218.234375 282.171875 218.925781 281.886719 C 219.613281 281.601562 220.269531 281.25 220.890625 280.835938 C 221.511719 280.421875 222.082031 279.953125 222.613281 279.421875 C 223.140625 278.894531 223.609375 278.324219 224.023438 277.703125 C 224.4375 277.082031 224.789062 276.425781 225.074219 275.738281 C 225.359375 275.046875 225.574219 274.335938 225.722656 273.605469 C 225.867188 272.875 225.9375 272.136719 225.9375 271.390625 L 225.9375 225.9375 C 225.9375 225.191406 226.011719 224.453125 226.15625 223.722656 C 226.304688 222.992188 226.519531 222.28125 226.804688 221.589844 C 227.089844 220.902344 227.441406 220.246094 227.855469 219.625 C 228.269531 219.007812 228.738281 218.433594 229.265625 217.90625 C 229.792969 217.378906 230.367188 216.90625 230.988281 216.492188 C 231.609375 216.078125 232.265625 215.726562 232.953125 215.441406 C 233.644531 215.15625 234.351562 214.941406 235.085938 214.796875 C 235.816406 214.648438 236.554688 214.578125 237.300781 214.578125 C 238.046875 214.578125 238.785156 214.648438 239.519531 214.796875 C 240.25 214.941406 240.960938 215.15625 241.648438 215.441406 C 242.339844 215.726562 242.996094 216.078125 243.613281 216.492188 C 244.234375 216.90625 244.808594 217.378906 245.335938 217.90625 C 245.863281 218.433594 246.335938 219.007812 246.75 219.625 C 247.164062 220.246094 247.515625 220.902344 247.800781 221.589844 C 248.085938 222.28125 248.300781 222.992188 248.445312 223.722656 C 248.589844 224.453125 248.664062 225.191406 248.664062 225.9375 L 248.664062 271.390625 C 248.664062 272.503906 248.609375 273.617188 248.496094 274.730469 C 248.386719 275.839844 248.222656 276.941406 248.003906 278.035156 C 247.785156 279.132812 247.511719 280.210938 247.1875 281.28125 C 246.863281 282.347656 246.488281 283.398438 246.058594 284.429688 C 245.632812 285.460938 245.15625 286.46875 244.628906 287.453125 C 244.101562 288.433594 243.53125 289.390625 242.910156 290.320312 C 242.289062 291.246094 241.625 292.140625 240.917969 293.003906 C 240.207031 293.867188 239.460938 294.695312 238.671875 295.484375 C 237.882812 296.273438 237.054688 297.019531 236.191406 297.730469 C 235.328125 298.4375 234.433594 299.101562 233.507812 299.722656 C 232.578125 300.34375 231.621094 300.914062 230.640625 301.441406 C 229.65625 301.96875 228.648438 302.445312 227.617188 302.871094 C 226.585938 303.300781 225.535156 303.675781 224.46875 304 C 223.398438 304.324219 222.320312 304.597656 221.226562 304.816406 C 220.128906 305.035156 219.027344 305.199219 217.917969 305.308594 C 216.804688 305.421875 215.691406 305.476562 214.578125 305.476562 Z M 214.578125 305.476562 " fill-opacity="1" fill-rule="nonzero"/></g><path fill="#ffffff" d="M 180.488281 135.152344 C 179.742188 135.15625 179.003906 135.082031 178.269531 134.941406 C 177.535156 134.796875 176.824219 134.582031 176.132812 134.296875 C 175.441406 134.015625 174.785156 133.664062 174.164062 133.253906 C 173.539062 132.839844 172.964844 132.371094 172.433594 131.84375 C 171.902344 131.316406 171.429688 130.742188 171.011719 130.125 C 170.59375 129.503906 170.242188 128.847656 169.953125 128.160156 C 169.664062 127.472656 169.445312 126.761719 169.296875 126.027344 C 169.148438 125.296875 169.074219 124.554688 169.070312 123.808594 C 169.066406 123.0625 169.136719 122.320312 169.28125 121.589844 C 169.421875 120.855469 169.636719 120.140625 169.917969 119.449219 C 170.199219 118.757812 170.546875 118.101562 170.960938 117.480469 C 171.371094 116.855469 171.839844 116.277344 172.367188 115.746094 C 172.890625 115.214844 173.464844 114.742188 174.082031 114.324219 C 174.703125 113.90625 175.355469 113.550781 176.046875 113.261719 C 176.734375 112.972656 177.445312 112.753906 178.175781 112.601562 C 178.910156 112.453125 179.648438 112.375 180.394531 112.371094 C 181.140625 112.367188 181.882812 112.4375 182.617188 112.578125 C 183.351562 112.71875 184.0625 112.929688 184.753906 113.210938 C 185.445312 113.492188 186.105469 113.839844 186.730469 114.25 C 187.351562 114.660156 187.929688 115.128906 188.460938 115.652344 C 188.992188 116.179688 189.46875 116.75 189.890625 117.367188 C 190.308594 117.988281 190.664062 118.640625 190.953125 119.328125 C 191.246094 120.015625 191.464844 120.726562 191.617188 121.457031 C 191.769531 122.191406 191.847656 122.929688 191.851562 123.675781 L 191.851562 123.789062 C 191.851562 124.535156 191.777344 125.277344 191.632812 126.007812 C 191.488281 126.738281 191.273438 127.449219 190.988281 128.140625 C 190.703125 128.828125 190.351562 129.484375 189.9375 130.101562 C 189.523438 130.722656 189.050781 131.296875 188.523438 131.824219 C 187.996094 132.351562 187.421875 132.824219 186.800781 133.238281 C 186.183594 133.652344 185.527344 134.003906 184.835938 134.289062 C 184.148438 134.574219 183.4375 134.789062 182.707031 134.933594 C 181.972656 135.082031 181.234375 135.152344 180.488281 135.152344 Z M 180.488281 135.152344 " fill-opacity="1" fill-rule="nonzero"/><path fill="#ffffff" d="M 203.214844 271.503906 C 202.46875 271.503906 201.726562 271.433594 200.992188 271.289062 C 200.261719 271.144531 199.546875 270.933594 198.859375 270.648438 C 198.167969 270.363281 197.507812 270.015625 196.886719 269.601562 C 196.265625 269.191406 195.6875 268.71875 195.160156 268.191406 C 194.628906 267.667969 194.15625 267.09375 193.738281 266.472656 C 193.320312 265.855469 192.96875 265.199219 192.679688 264.511719 C 192.390625 263.820312 192.171875 263.109375 192.023438 262.378906 C 191.875 261.644531 191.796875 260.90625 191.796875 260.160156 C 191.792969 259.410156 191.863281 258.671875 192.003906 257.9375 C 192.148438 257.203125 192.359375 256.492188 192.644531 255.800781 C 192.925781 255.109375 193.273438 254.453125 193.683594 253.828125 C 194.097656 253.207031 194.566406 252.628906 195.089844 252.097656 C 195.617188 251.566406 196.191406 251.09375 196.808594 250.675781 C 197.429688 250.253906 198.082031 249.902344 198.769531 249.613281 C 199.460938 249.324219 200.167969 249.101562 200.902344 248.953125 C 201.632812 248.804688 202.371094 248.726562 203.121094 248.722656 C 203.867188 248.71875 204.609375 248.785156 205.339844 248.925781 C 206.074219 249.066406 206.789062 249.28125 207.480469 249.5625 C 208.171875 249.84375 208.828125 250.1875 209.453125 250.601562 C 210.078125 251.011719 210.65625 251.480469 211.1875 252.003906 C 211.71875 252.527344 212.195312 253.101562 212.613281 253.71875 C 213.03125 254.335938 213.386719 254.992188 213.679688 255.679688 C 213.96875 256.367188 214.191406 257.078125 214.34375 257.808594 C 214.492188 258.539062 214.570312 259.28125 214.578125 260.027344 L 214.578125 260.140625 C 214.578125 260.886719 214.503906 261.625 214.359375 262.355469 C 214.214844 263.089844 213.996094 263.800781 213.710938 264.488281 C 213.425781 265.179688 213.078125 265.832031 212.660156 266.453125 C 212.246094 267.074219 211.777344 267.648438 211.25 268.175781 C 210.722656 268.703125 210.148438 269.171875 209.527344 269.589844 C 208.90625 270.003906 208.25 270.351562 207.5625 270.636719 C 206.875 270.921875 206.164062 271.140625 205.429688 271.285156 C 204.699219 271.429688 203.960938 271.503906 203.214844 271.503906 Z M 203.214844 271.503906 " fill-opacity="1" fill-rule="nonzero"/></svg>