<svg xmlns="http://www.w3.org/2000/svg" xmlns:xlink="http://www.w3.org/1999/xlink" width="512" zoomAndPan="magnify" viewBox="0 0 384 383.999986" height="512" preserveAspectRatio="xMidYMid meet" version="1.0"><defs><clipPath id="id1"><path d="M 83.421875 83.421875 L 300.921875 83.421875 L 300.921875 300.921875 L 83.421875 300.921875 Z M 83.421875 83.421875 " clip-rule="nonzero"/></clipPath><clipPath id="id2"><path d="M 83.421875 83.421875 L 300.921875 83.421875 L 300.921875 143 L 83.421875 143 Z M 83.421875 83.421875 " clip-rule="nonzero"/></clipPath></defs><path fill="#ffffff" d="M 192 0 C 85.921875 0 0 85.921875 0 192 C 0 298.078125 85.921875 384 192 384 C 298.078125 384 384 298.078125 384 192 C 384 85.921875 298.078125 0 192 0 Z M 192 345.601562 C 107.136719 345.601562 38.398438 276.863281 38.398438 192 C 38.398438 107.136719 107.136719 38.398438 192 38.398438 C 276.863281 38.398438 345.601562 107.136719 345.601562 192 C 345.601562 276.863281 276.863281 345.601562 192 345.601562 Z M 192 345.601562 " fill-opacity="1" fill-rule="nonzero"/><g clip-path="url(#id1)"><path fill="#ffffff" d="M 83.421875 113.078125 C 83.421875 96.699219 96.699219 83.421875 113.078125 83.421875 L 271.261719 83.421875 C 287.640625 83.421875 300.921875 96.699219 300.921875 113.078125 L 300.921875 271.261719 C 300.921875 287.640625 287.640625 300.921875 271.261719 300.921875 L 113.078125 300.921875 C 96.699219 300.921875 83.421875 287.640625 83.421875 271.261719 Z M 113.078125 103.195312 C 107.621094 103.195312 103.195312 107.621094 103.195312 113.078125 L 103.195312 271.261719 C 103.195312 276.722656 107.621094 281.148438 113.078125 281.148438 L 271.261719 281.148438 C 276.722656 281.148438 281.148438 276.722656 281.148438 271.261719 L 281.148438 113.078125 C 281.148438 107.621094 276.722656 103.195312 271.261719 103.195312 Z M 113.078125 103.195312 " fill-opacity="1" fill-rule="evenodd"/></g><g clip-path="url(#id2)"><path fill="#ffffff" d="M 83.421875 113.078125 C 83.421875 96.699219 96.699219 83.421875 113.078125 83.421875 L 271.261719 83.421875 C 287.640625 83.421875 300.921875 96.699219 300.921875 113.078125 L 300.921875 132.851562 C 300.921875 138.3125 296.496094 142.738281 291.035156 142.738281 L 93.308594 142.738281 C 87.847656 142.738281 83.421875 138.3125 83.421875 132.851562 Z M 113.078125 103.195312 C 107.621094 103.195312 103.195312 107.621094 103.195312 113.078125 L 103.195312 122.964844 L 281.148438 122.964844 L 281.148438 113.078125 C 281.148438 107.621094 276.722656 103.195312 271.261719 103.195312 Z M 113.078125 103.195312 " fill-opacity="1" fill-rule="evenodd"/></g><path fill="#ffffff" d="M 197.113281 162.511719 C 197.113281 157.050781 201.539062 152.625 207 152.625 L 261.375 152.625 L 261.375 172.398438 L 216.886719 172.398438 L 216.886719 202.058594 L 261.375 202.058594 C 266.835938 202.058594 271.261719 206.484375 271.261719 211.945312 L 271.261719 261.375 C 271.261719 266.835938 266.835938 271.261719 261.375 271.261719 L 207 271.261719 L 207 251.488281 L 251.488281 251.488281 L 251.488281 221.828125 L 207 221.828125 C 201.539062 221.828125 197.113281 217.402344 197.113281 211.945312 Z M 197.113281 162.511719 " fill-opacity="1" fill-rule="evenodd"/><path fill="#ffffff" d="M 137.796875 172.398438 L 113.078125 172.398438 L 113.078125 152.625 L 182.285156 152.625 L 182.285156 172.398438 L 157.570312 172.398438 L 157.570312 261.375 L 137.796875 261.375 Z M 137.796875 172.398438 " fill-opacity="1" fill-rule="evenodd"/></svg>