<svg xmlns="http://www.w3.org/2000/svg" xmlns:xlink="http://www.w3.org/1999/xlink" width="512" zoomAndPan="magnify" viewBox="0 0 384 383.999986" height="512" preserveAspectRatio="xMidYMid meet" version="1.0"><defs><clipPath id="id1"><path d="M 191 59.039062 L 252 59.039062 L 252 291 L 191 291 Z M 191 59.039062 " clip-rule="nonzero"/></clipPath><clipPath id="id2"><path d="M 132 59.039062 L 194 59.039062 L 194 293 L 132 293 Z M 132 59.039062 " clip-rule="nonzero"/></clipPath><clipPath id="id3"><path d="M 187 259 L 203 259 L 203 325.289062 L 187 325.289062 Z M 187 259 " clip-rule="nonzero"/></clipPath></defs><path fill="#ffffff" d="M 192 0 C 85.921875 0 0 85.921875 0 192 C 0 298.078125 85.921875 384 192 384 C 298.078125 384 384 298.078125 384 192 C 384 85.921875 298.078125 0 192 0 Z M 192 345.601562 C 107.136719 345.601562 38.398438 276.863281 38.398438 192 C 38.398438 107.136719 107.136719 38.398438 192 38.398438 C 276.863281 38.398438 345.601562 107.136719 345.601562 192 C 345.601562 276.863281 276.863281 345.601562 192 345.601562 Z M 192 345.601562 " fill-opacity="1" fill-rule="nonzero"/><g clip-path="url(#id1)"><path fill="#ffffff" d="M 191.464844 59.761719 L 198.546875 73.109375 C 200.140625 75.570312 201.863281 77.75 203.898438 79.78125 C 209.828125 85.730469 215.460938 91.960938 220.519531 98.632812 C 232.519531 114.441406 240.617188 132 246.398438 150.984375 C 249.863281 162.585938 251.746094 174.480469 251.890625 186.511719 C 252.46875 222.480469 240.175781 253.367188 215.394531 279.035156 C 211.34375 283.09375 207.015625 286.855469 202.371094 290.199219 C 199.914062 290.199219 198.753906 288.3125 197.742188 286.574219 C 195.859375 283.386719 194.707031 279.75 194.125 276.132812 C 193.253906 271.78125 192.683594 267.429688 192.964844 262.933594 L 192.964844 260.90625 C 192.765625 260.472656 190.601562 60.785156 191.464844 59.761719 Z M 191.464844 59.761719 " fill-opacity="1" fill-rule="nonzero"/></g><g clip-path="url(#id2)"><path fill="#ffffff" d="M 191.464844 59.320312 C 191.171875 58.738281 190.882812 59.179688 190.59375 59.460938 C 190.734375 62.375 189.722656 64.96875 188.136719 67.449219 C 186.394531 69.914062 184.089844 71.800781 181.777344 73.832031 C 168.917969 84.996094 158.800781 98.484375 150.695312 113.570312 C 139.914062 133.871094 134.355469 155.628906 132.78125 178.535156 C 132.058594 186.796875 135.386719 215.949219 137.980469 224.363281 C 145.066406 246.695312 157.789062 265.40625 174.269531 281.648438 C 178.316406 285.558594 182.648438 289.1875 187.125 292.671875 C 188.429688 292.671875 188.570312 291.507812 188.867188 290.640625 C 189.4375 288.789062 189.875 286.902344 190.171875 284.984375 L 193.074219 263.234375 Z M 191.464844 59.320312 " fill-opacity="1" fill-rule="nonzero"/></g><g clip-path="url(#id3)"><path fill="#ffffff" d="M 198.546875 299.039062 C 198.835938 295.710938 200.429688 292.945312 202.164062 290.191406 C 200.421875 289.46875 199.128906 288.03125 198.117188 286.421875 C 197.246094 284.976562 196.523438 283.238281 195.960938 281.640625 C 193.9375 275.550781 193.503906 269.160156 192.921875 262.933594 L 192.921875 259.167969 C 192.203125 259.75 192.054688 264.675781 192.054688 265.40625 C 191.628906 271.992188 190.761719 278.519531 189.449219 284.984375 C 189.015625 287.597656 188.726562 290.199219 187.125 292.523438 C 187.125 292.8125 187.125 293.105469 187.265625 293.539062 C 189.871094 301.226562 190.585938 309.054688 191.023438 317.035156 L 191.023438 319.945312 C 191.023438 323.425781 190.882812 322.691406 193.761719 323.855469 C 194.921875 324.289062 196.214844 324.4375 197.378906 325.304688 C 198.25 325.304688 198.390625 324.582031 198.390625 324 L 197.957031 319.214844 L 197.957031 305.867188 C 197.816406 303.539062 198.25 301.226562 198.539062 299.046875 Z M 198.546875 299.039062 " fill-opacity="1" fill-rule="nonzero"/></g></svg>