<svg xmlns="http://www.w3.org/2000/svg" xmlns:xlink="http://www.w3.org/1999/xlink" width="512" zoomAndPan="magnify" viewBox="0 0 384 383.999986" height="512" preserveAspectRatio="xMidYMid meet" version="1.0"><defs><clipPath id="id1"><path d="M 81.671875 111.960938 L 302.171875 111.960938 L 302.171875 304.710938 L 81.671875 304.710938 Z M 81.671875 111.960938 " clip-rule="nonzero"/></clipPath></defs><path fill="#ffffff" d="M 192 0 C 85.921875 0 0 85.921875 0 192 C 0 298.078125 85.921875 384 192 384 C 298.078125 384 384 298.078125 384 192 C 384 85.921875 298.078125 0 192 0 Z M 192 345.601562 C 107.136719 345.601562 38.398438 276.863281 38.398438 192 C 38.398438 107.136719 107.136719 38.398438 192 38.398438 C 276.863281 38.398438 345.601562 107.136719 345.601562 192 C 345.601562 276.863281 276.863281 345.601562 192 345.601562 Z M 192 345.601562 " fill-opacity="1" fill-rule="nonzero"/><g clip-path="url(#id1)"><path fill="#ffffff" d="M 257.28125 111.960938 L 219.484375 111.960938 L 191.921875 156.9375 L 168.296875 111.960938 L 81.671875 111.960938 L 191.921875 304.710938 L 302.167969 111.960938 Z M 109.234375 128.023438 L 136.007812 128.023438 L 191.921875 227.613281 L 247.832031 128.023438 L 274.605469 128.023438 L 191.921875 272.585938 Z M 109.234375 128.023438 " fill-opacity="1" fill-rule="nonzero"/></g></svg>