<svg xmlns="http://www.w3.org/2000/svg" xmlns:xlink="http://www.w3.org/1999/xlink" width="512" zoomAndPan="magnify" viewBox="0 0 384 383.999986" height="512" preserveAspectRatio="xMidYMid meet" version="1.0"><path fill="#ffffff" d="M 192 0 C 85.921875 0 0 85.921875 0 192 C 0 298.078125 85.921875 384 192 384 C 298.078125 384 384 298.078125 384 192 C 384 85.921875 298.078125 0 192 0 Z M 192 345.601562 C 107.136719 345.601562 38.398438 276.863281 38.398438 192 C 38.398438 107.136719 107.136719 38.398438 192 38.398438 C 276.863281 38.398438 345.601562 107.136719 345.601562 192 C 345.601562 276.863281 276.863281 345.601562 192 345.601562 Z M 192 345.601562 " fill-opacity="1" fill-rule="nonzero"/><path fill="#ffffff" d="M 267.328125 194.308594 C 267.328125 195.128906 267.289062 195.945312 267.207031 196.757812 C 267.128906 197.570312 267.007812 198.378906 266.847656 199.179688 C 266.6875 199.980469 266.492188 200.773438 266.253906 201.558594 C 266.015625 202.339844 265.742188 203.109375 265.429688 203.863281 C 265.117188 204.617188 264.765625 205.355469 264.378906 206.078125 C 263.996094 206.800781 263.574219 207.5 263.121094 208.179688 C 262.667969 208.859375 262.179688 209.515625 261.660156 210.148438 C 261.144531 210.777344 260.59375 211.382812 260.015625 211.960938 C 259.4375 212.539062 258.832031 213.089844 258.203125 213.605469 C 257.570312 214.125 256.914062 214.613281 256.234375 215.066406 C 255.554688 215.519531 254.855469 215.941406 254.132812 216.324219 C 253.410156 216.710938 252.671875 217.058594 251.917969 217.375 C 251.164062 217.6875 250.394531 217.960938 249.613281 218.199219 C 248.828125 218.4375 248.035156 218.632812 247.234375 218.792969 C 246.433594 218.953125 245.625 219.074219 244.8125 219.152344 C 244 219.234375 243.183594 219.273438 242.363281 219.273438 C 241.546875 219.273438 240.730469 219.234375 239.917969 219.152344 C 239.105469 219.074219 238.296875 218.953125 237.496094 218.792969 C 236.691406 218.632812 235.902344 218.4375 235.117188 218.199219 C 234.335938 217.960938 233.566406 217.6875 232.8125 217.375 C 232.054688 217.058594 231.316406 216.710938 230.597656 216.324219 C 229.875 215.941406 229.175781 215.519531 228.496094 215.066406 C 227.816406 214.613281 227.160156 214.125 226.527344 213.605469 C 225.894531 213.089844 225.292969 212.539062 224.714844 211.960938 C 224.136719 211.382812 223.585938 210.777344 223.066406 210.148438 C 222.550781 209.515625 222.0625 208.859375 221.609375 208.179688 C 221.15625 207.5 220.734375 206.800781 220.347656 206.078125 C 219.964844 205.355469 219.613281 204.617188 219.300781 203.863281 C 218.988281 203.109375 218.714844 202.339844 218.476562 201.558594 C 218.238281 200.773438 218.039062 199.980469 217.882812 199.179688 C 217.722656 198.378906 217.601562 197.570312 217.523438 196.757812 C 217.441406 195.945312 217.402344 195.128906 217.402344 194.308594 C 217.402344 193.492188 217.441406 192.675781 217.523438 191.863281 C 217.601562 191.050781 217.722656 190.242188 217.882812 189.441406 C 218.039062 188.636719 218.238281 187.847656 218.476562 187.0625 C 218.714844 186.28125 218.988281 185.511719 219.300781 184.757812 C 219.613281 184 219.964844 183.261719 220.347656 182.542969 C 220.734375 181.820312 221.15625 181.121094 221.609375 180.441406 C 222.0625 179.761719 222.550781 179.105469 223.066406 178.472656 C 223.585938 177.839844 224.136719 177.238281 224.714844 176.660156 C 225.292969 176.082031 225.894531 175.53125 226.527344 175.011719 C 227.160156 174.496094 227.816406 174.007812 228.496094 173.554688 C 229.175781 173.097656 229.875 172.679688 230.597656 172.292969 C 231.316406 171.910156 232.054688 171.558594 232.8125 171.246094 C 233.566406 170.933594 234.335938 170.660156 235.117188 170.421875 C 235.902344 170.183594 236.691406 169.984375 237.496094 169.828125 C 238.296875 169.667969 239.105469 169.546875 239.917969 169.46875 C 240.730469 169.386719 241.546875 169.347656 242.363281 169.347656 C 243.183594 169.347656 244 169.386719 244.8125 169.46875 C 245.625 169.546875 246.433594 169.667969 247.234375 169.828125 C 248.035156 169.984375 248.828125 170.183594 249.613281 170.421875 C 250.394531 170.660156 251.164062 170.933594 251.917969 171.246094 C 252.671875 171.558594 253.410156 171.910156 254.132812 172.292969 C 254.855469 172.679688 255.554688 173.097656 256.234375 173.554688 C 256.914062 174.007812 257.570312 174.496094 258.203125 175.011719 C 258.832031 175.53125 259.4375 176.082031 260.015625 176.660156 C 260.59375 177.238281 261.144531 177.839844 261.660156 178.472656 C 262.179688 179.105469 262.667969 179.761719 263.121094 180.441406 C 263.574219 181.121094 263.996094 181.820312 264.378906 182.542969 C 264.765625 183.261719 265.117188 184 265.429688 184.757812 C 265.742188 185.511719 266.015625 186.28125 266.253906 187.0625 C 266.492188 187.847656 266.6875 188.636719 266.847656 189.441406 C 267.007812 190.242188 267.128906 191.050781 267.207031 191.863281 C 267.289062 192.675781 267.328125 193.492188 267.328125 194.308594 Z M 267.328125 194.308594 " fill-opacity="1" fill-rule="nonzero"/><path fill="#ffffff" d="M 217.402344 144.382812 C 217.402344 145.199219 217.363281 146.015625 217.28125 146.828125 C 217.199219 147.644531 217.082031 148.453125 216.921875 149.253906 C 216.761719 150.054688 216.5625 150.847656 216.328125 151.628906 C 216.089844 152.410156 215.8125 153.179688 215.5 153.9375 C 215.1875 154.691406 214.839844 155.429688 214.453125 156.152344 C 214.070312 156.871094 213.648438 157.574219 213.195312 158.253906 C 212.738281 158.933594 212.253906 159.585938 211.734375 160.21875 C 211.214844 160.851562 210.667969 161.457031 210.089844 162.035156 C 209.511719 162.613281 208.90625 163.160156 208.273438 163.679688 C 207.644531 164.199219 206.988281 164.683594 206.308594 165.140625 C 205.628906 165.59375 204.925781 166.011719 204.207031 166.398438 C 203.484375 166.785156 202.746094 167.132812 201.992188 167.445312 C 201.234375 167.757812 200.46875 168.035156 199.683594 168.273438 C 198.902344 168.507812 198.109375 168.707031 197.308594 168.867188 C 196.507812 169.027344 195.699219 169.144531 194.886719 169.226562 C 194.070312 169.304688 193.253906 169.347656 192.4375 169.347656 C 191.621094 169.347656 190.804688 169.304688 189.992188 169.226562 C 189.175781 169.144531 188.371094 169.027344 187.566406 168.867188 C 186.765625 168.707031 185.972656 168.507812 185.191406 168.273438 C 184.410156 168.035156 183.640625 167.757812 182.886719 167.445312 C 182.128906 167.132812 181.390625 166.785156 180.671875 166.398438 C 179.949219 166.011719 179.25 165.59375 178.570312 165.140625 C 177.890625 164.683594 177.234375 164.199219 176.601562 163.679688 C 175.96875 163.160156 175.363281 162.613281 174.785156 162.035156 C 174.207031 161.457031 173.660156 160.851562 173.140625 160.21875 C 172.621094 159.585938 172.136719 158.933594 171.679688 158.253906 C 171.226562 157.574219 170.808594 156.871094 170.421875 156.152344 C 170.035156 155.429688 169.6875 154.691406 169.375 153.9375 C 169.0625 153.179688 168.785156 152.410156 168.550781 151.628906 C 168.3125 150.847656 168.113281 150.054688 167.953125 149.253906 C 167.792969 148.453125 167.675781 147.644531 167.59375 146.828125 C 167.515625 146.015625 167.472656 145.199219 167.472656 144.382812 C 167.472656 143.566406 167.515625 142.75 167.59375 141.9375 C 167.675781 141.121094 167.792969 140.316406 167.953125 139.511719 C 168.113281 138.710938 168.3125 137.917969 168.550781 137.136719 C 168.785156 136.355469 169.0625 135.585938 169.375 134.828125 C 169.6875 134.074219 170.035156 133.335938 170.421875 132.617188 C 170.808594 131.894531 171.226562 131.195312 171.679688 130.515625 C 172.136719 129.835938 172.621094 129.179688 173.140625 128.546875 C 173.660156 127.914062 174.207031 127.308594 174.785156 126.730469 C 175.363281 126.152344 175.96875 125.605469 176.601562 125.085938 C 177.234375 124.566406 177.890625 124.082031 178.570312 123.625 C 179.25 123.171875 179.949219 122.753906 180.671875 122.367188 C 181.390625 121.980469 182.128906 121.632812 182.886719 121.320312 C 183.640625 121.007812 184.410156 120.730469 185.191406 120.496094 C 185.972656 120.257812 186.765625 120.058594 187.566406 119.898438 C 188.371094 119.738281 189.175781 119.621094 189.992188 119.539062 C 190.804688 119.460938 191.621094 119.417969 192.4375 119.417969 C 193.253906 119.417969 194.070312 119.460938 194.886719 119.539062 C 195.699219 119.621094 196.507812 119.738281 197.308594 119.898438 C 198.109375 120.058594 198.902344 120.257812 199.683594 120.496094 C 200.46875 120.730469 201.234375 121.007812 201.992188 121.320312 C 202.746094 121.632812 203.484375 121.980469 204.207031 122.367188 C 204.925781 122.753906 205.628906 123.171875 206.308594 123.625 C 206.988281 124.082031 207.644531 124.566406 208.273438 125.085938 C 208.90625 125.605469 209.511719 126.152344 210.089844 126.730469 C 210.667969 127.308594 211.214844 127.914062 211.734375 128.546875 C 212.253906 129.179688 212.738281 129.835938 213.195312 130.515625 C 213.648438 131.195312 214.070312 131.894531 214.453125 132.617188 C 214.839844 133.335938 215.1875 134.074219 215.5 134.828125 C 215.8125 135.585938 216.089844 136.355469 216.328125 137.136719 C 216.5625 137.917969 216.761719 138.710938 216.921875 139.511719 C 217.082031 140.316406 217.199219 141.121094 217.28125 141.9375 C 217.363281 142.75 217.402344 143.566406 217.402344 144.382812 Z M 217.402344 144.382812 " fill-opacity="1" fill-rule="nonzero"/><path fill="#ffffff" d="M 217.402344 244.238281 C 217.402344 245.054688 217.363281 245.871094 217.28125 246.683594 C 217.199219 247.496094 217.082031 248.304688 216.921875 249.105469 C 216.761719 249.910156 216.5625 250.703125 216.328125 251.484375 C 216.089844 252.265625 215.8125 253.035156 215.5 253.789062 C 215.1875 254.546875 214.839844 255.285156 214.453125 256.003906 C 214.070312 256.726562 213.648438 257.425781 213.195312 258.105469 C 212.738281 258.785156 212.253906 259.441406 211.734375 260.074219 C 211.214844 260.707031 210.667969 261.3125 210.089844 261.890625 C 209.511719 262.46875 208.90625 263.015625 208.273438 263.535156 C 207.644531 264.054688 206.988281 264.539062 206.308594 264.992188 C 205.628906 265.449219 204.925781 265.867188 204.207031 266.253906 C 203.484375 266.636719 202.746094 266.988281 201.992188 267.300781 C 201.234375 267.613281 200.46875 267.886719 199.683594 268.125 C 198.902344 268.363281 198.109375 268.5625 197.308594 268.722656 C 196.507812 268.878906 195.699219 269 194.886719 269.082031 C 194.070312 269.160156 193.253906 269.199219 192.4375 269.199219 C 191.621094 269.199219 190.804688 269.160156 189.992188 269.082031 C 189.175781 269 188.371094 268.878906 187.566406 268.722656 C 186.765625 268.5625 185.972656 268.363281 185.191406 268.125 C 184.410156 267.886719 183.640625 267.613281 182.886719 267.300781 C 182.128906 266.988281 181.390625 266.636719 180.671875 266.253906 C 179.949219 265.867188 179.25 265.449219 178.570312 264.992188 C 177.890625 264.539062 177.234375 264.054688 176.601562 263.535156 C 175.96875 263.015625 175.363281 262.46875 174.785156 261.890625 C 174.207031 261.3125 173.660156 260.707031 173.140625 260.074219 C 172.621094 259.441406 172.136719 258.785156 171.679688 258.105469 C 171.226562 257.425781 170.808594 256.726562 170.421875 256.003906 C 170.035156 255.285156 169.6875 254.546875 169.375 253.789062 C 169.0625 253.035156 168.785156 252.265625 168.550781 251.484375 C 168.3125 250.703125 168.113281 249.910156 167.953125 249.105469 C 167.792969 248.304688 167.675781 247.496094 167.59375 246.683594 C 167.515625 245.871094 167.472656 245.054688 167.472656 244.238281 C 167.472656 243.417969 167.515625 242.605469 167.59375 241.789062 C 167.675781 240.976562 167.792969 240.167969 167.953125 239.367188 C 168.113281 238.566406 168.3125 237.773438 168.550781 236.992188 C 168.785156 236.207031 169.0625 235.4375 169.375 234.683594 C 169.6875 233.929688 170.035156 233.191406 170.421875 232.46875 C 170.808594 231.75 171.226562 231.046875 171.679688 230.367188 C 172.136719 229.6875 172.621094 229.03125 173.140625 228.402344 C 173.660156 227.769531 174.207031 227.164062 174.785156 226.585938 C 175.363281 226.007812 175.96875 225.457031 176.601562 224.941406 C 177.234375 224.421875 177.890625 223.933594 178.570312 223.480469 C 179.25 223.027344 179.949219 222.605469 180.671875 222.222656 C 181.390625 221.835938 182.128906 221.488281 182.886719 221.175781 C 183.640625 220.859375 184.410156 220.585938 185.191406 220.347656 C 185.972656 220.109375 186.765625 219.914062 187.566406 219.753906 C 188.371094 219.59375 189.175781 219.472656 189.992188 219.394531 C 190.804688 219.3125 191.621094 219.273438 192.4375 219.273438 C 193.253906 219.273438 194.070312 219.3125 194.886719 219.394531 C 195.699219 219.472656 196.507812 219.59375 197.308594 219.753906 C 198.109375 219.914062 198.902344 220.109375 199.683594 220.347656 C 200.46875 220.585938 201.234375 220.859375 201.992188 221.175781 C 202.746094 221.488281 203.484375 221.835938 204.207031 222.222656 C 204.925781 222.605469 205.628906 223.027344 206.308594 223.480469 C 206.988281 223.933594 207.644531 224.421875 208.273438 224.941406 C 208.90625 225.457031 209.511719 226.007812 210.089844 226.585938 C 210.667969 227.164062 211.214844 227.769531 211.734375 228.402344 C 212.253906 229.03125 212.738281 229.6875 213.195312 230.367188 C 213.648438 231.046875 214.070312 231.75 214.453125 232.46875 C 214.839844 233.191406 215.1875 233.929688 215.5 234.683594 C 215.8125 235.4375 216.089844 236.207031 216.328125 236.992188 C 216.5625 237.773438 216.761719 238.566406 216.921875 239.367188 C 217.082031 240.167969 217.199219 240.976562 217.28125 241.789062 C 217.363281 242.605469 217.402344 243.417969 217.402344 244.238281 Z M 217.402344 244.238281 " fill-opacity="1" fill-rule="nonzero"/><path fill="#ffffff" d="M 192.4375 244.238281 C 191.617188 244.238281 190.808594 244.15625 190.003906 243.996094 C 189.199219 243.835938 188.417969 243.601562 187.660156 243.285156 C 186.902344 242.972656 186.183594 242.589844 185.503906 242.132812 C 184.820312 241.679688 184.191406 241.160156 183.613281 240.582031 C 183.03125 240 182.515625 239.371094 182.058594 238.691406 C 181.605469 238.007812 181.21875 237.289062 180.90625 236.53125 C 180.59375 235.773438 180.355469 234.996094 180.195312 234.191406 C 180.035156 233.386719 179.957031 232.574219 179.957031 231.753906 L 179.957031 156.863281 C 179.957031 156.046875 180.035156 155.234375 180.195312 154.429688 C 180.355469 153.625 180.59375 152.84375 180.90625 152.089844 C 181.21875 151.332031 181.605469 150.613281 182.058594 149.929688 C 182.515625 149.25 183.03125 148.617188 183.613281 148.039062 C 184.191406 147.460938 184.820312 146.941406 185.503906 146.488281 C 186.183594 146.03125 186.902344 145.648438 187.660156 145.332031 C 188.417969 145.019531 189.199219 144.78125 190.003906 144.621094 C 190.808594 144.464844 191.617188 144.382812 192.4375 144.382812 C 193.257812 144.382812 194.070312 144.464844 194.871094 144.621094 C 195.675781 144.78125 196.457031 145.019531 197.214844 145.332031 C 197.972656 145.648438 198.691406 146.03125 199.371094 146.488281 C 200.054688 146.941406 200.683594 147.460938 201.265625 148.039062 C 201.84375 148.617188 202.359375 149.25 202.816406 149.929688 C 203.269531 150.613281 203.65625 151.332031 203.96875 152.089844 C 204.28125 152.84375 204.519531 153.625 204.679688 154.429688 C 204.839844 155.234375 204.917969 156.046875 204.917969 156.863281 L 204.917969 231.753906 C 204.917969 232.574219 204.839844 233.386719 204.679688 234.191406 C 204.519531 234.996094 204.28125 235.773438 203.96875 236.53125 C 203.65625 237.289062 203.269531 238.007812 202.816406 238.691406 C 202.359375 239.371094 201.84375 240 201.265625 240.582031 C 200.683594 241.160156 200.054688 241.679688 199.371094 242.132812 C 198.691406 242.589844 197.972656 242.972656 197.214844 243.285156 C 196.457031 243.601562 195.675781 243.835938 194.871094 243.996094 C 194.070312 244.15625 193.257812 244.238281 192.4375 244.238281 Z M 192.4375 244.238281 " fill-opacity="1" fill-rule="nonzero"/><path fill="#ffffff" d="M 229.882812 194.308594 C 228.226562 194.3125 226.636719 193.996094 225.105469 193.363281 C 223.574219 192.730469 222.226562 191.828125 221.058594 190.652344 L 196.09375 165.691406 C 195.53125 165.105469 195.03125 164.476562 194.589844 163.792969 C 194.152344 163.113281 193.78125 162.398438 193.480469 161.644531 C 193.179688 160.890625 192.953125 160.117188 192.804688 159.320312 C 192.65625 158.523438 192.585938 157.71875 192.589844 156.910156 C 192.597656 156.097656 192.683594 155.296875 192.847656 154.503906 C 193.011719 153.710938 193.25 152.9375 193.5625 152.191406 C 193.875 151.445312 194.257812 150.734375 194.710938 150.0625 C 195.160156 149.386719 195.675781 148.765625 196.246094 148.191406 C 196.820312 147.617188 197.441406 147.105469 198.117188 146.65625 C 198.789062 146.203125 199.5 145.820312 200.246094 145.507812 C 200.992188 145.195312 201.765625 144.957031 202.558594 144.792969 C 203.351562 144.628906 204.152344 144.542969 204.964844 144.535156 C 205.773438 144.53125 206.578125 144.601562 207.375 144.75 C 208.171875 144.898438 208.945312 145.125 209.699219 145.425781 C 210.453125 145.726562 211.167969 146.097656 211.847656 146.535156 C 212.53125 146.976562 213.160156 147.476562 213.746094 148.039062 L 238.707031 173.003906 C 239.582031 173.875 240.308594 174.855469 240.890625 175.945312 C 241.472656 177.035156 241.882812 178.183594 242.121094 179.394531 C 242.363281 180.605469 242.421875 181.824219 242.300781 183.050781 C 242.179688 184.28125 241.882812 185.464844 241.414062 186.605469 C 240.941406 187.746094 240.3125 188.792969 239.527344 189.746094 C 238.746094 190.699219 237.839844 191.519531 236.816406 192.207031 C 235.789062 192.890625 234.6875 193.414062 233.503906 193.773438 C 232.324219 194.132812 231.117188 194.308594 229.882812 194.308594 Z M 229.882812 194.308594 " fill-opacity="1" fill-rule="nonzero"/><path fill="#ffffff" d="M 179.957031 144.382812 C 178.300781 144.386719 176.707031 144.070312 175.179688 143.4375 C 173.648438 142.804688 172.300781 141.898438 171.132812 140.726562 L 147.417969 117.011719 C 146.851562 116.425781 146.351562 115.796875 145.910156 115.117188 C 145.472656 114.433594 145.101562 113.71875 144.800781 112.964844 C 144.5 112.210938 144.277344 111.4375 144.125 110.640625 C 143.976562 109.84375 143.90625 109.042969 143.914062 108.230469 C 143.917969 107.421875 144.003906 106.617188 144.167969 105.824219 C 144.332031 105.03125 144.570312 104.261719 144.882812 103.511719 C 145.195312 102.765625 145.578125 102.054688 146.03125 101.382812 C 146.484375 100.710938 146.996094 100.085938 147.566406 99.511719 C 148.140625 98.941406 148.765625 98.429688 149.4375 97.976562 C 150.109375 97.523438 150.820312 97.140625 151.566406 96.828125 C 152.316406 96.515625 153.085938 96.277344 153.878906 96.113281 C 154.671875 95.949219 155.476562 95.863281 156.285156 95.859375 C 157.097656 95.851562 157.898438 95.921875 158.695312 96.070312 C 159.492188 96.222656 160.265625 96.445312 161.019531 96.746094 C 161.773438 97.046875 162.488281 97.417969 163.171875 97.855469 C 163.851562 98.296875 164.484375 98.796875 165.066406 99.363281 L 188.78125 123.078125 C 189.652344 123.949219 190.378906 124.929688 190.960938 126.019531 C 191.542969 127.105469 191.953125 128.257812 192.195312 129.46875 C 192.4375 130.675781 192.496094 131.898438 192.375 133.125 C 192.253906 134.351562 191.957031 135.539062 191.484375 136.675781 C 191.011719 137.816406 190.386719 138.867188 189.601562 139.820312 C 188.820312 140.773438 187.914062 141.59375 186.886719 142.28125 C 185.863281 142.964844 184.757812 143.488281 183.578125 143.84375 C 182.398438 144.203125 181.191406 144.382812 179.957031 144.382812 Z M 179.957031 144.382812 " fill-opacity="1" fill-rule="nonzero"/><path fill="#ffffff" d="M 192.4375 318.953125 C 189.894531 318.980469 187.375 318.757812 184.875 318.292969 C 182.375 317.828125 179.945312 317.125 177.582031 316.183594 C 175.21875 315.242188 172.972656 314.082031 170.835938 312.703125 C 168.699219 311.324219 166.71875 309.75 164.890625 307.980469 L 78.765625 221.855469 C 77.894531 220.9375 77.070312 219.976562 76.292969 218.980469 C 75.511719 217.980469 74.78125 216.949219 74.101562 215.882812 C 73.417969 214.816406 72.789062 213.71875 72.210938 212.589844 C 71.632812 211.464844 71.113281 210.3125 70.644531 209.136719 C 70.175781 207.957031 69.761719 206.761719 69.410156 205.546875 C 69.054688 204.332031 68.757812 203.101562 68.519531 201.859375 C 68.28125 200.613281 68.101562 199.363281 67.980469 198.101562 C 67.859375 196.839844 67.800781 195.578125 67.800781 194.308594 C 67.800781 193.042969 67.859375 191.78125 67.980469 190.519531 C 68.101562 189.257812 68.28125 188.007812 68.519531 186.761719 C 68.757812 185.519531 69.054688 184.289062 69.410156 183.074219 C 69.761719 181.859375 70.175781 180.660156 70.644531 179.484375 C 71.113281 178.308594 71.632812 177.15625 72.210938 176.03125 C 72.789062 174.902344 73.417969 173.804688 74.101562 172.738281 C 74.78125 171.671875 75.511719 170.636719 76.292969 169.640625 C 77.070312 168.640625 77.894531 167.683594 78.765625 166.761719 L 164.890625 80.640625 C 165.8125 79.769531 166.769531 78.941406 167.769531 78.164062 C 168.765625 77.382812 169.796875 76.652344 170.867188 75.972656 C 171.933594 75.289062 173.03125 74.660156 174.15625 74.082031 C 175.285156 73.503906 176.4375 72.980469 177.613281 72.511719 C 178.789062 72.042969 179.988281 71.632812 181.203125 71.277344 C 182.417969 70.921875 183.648438 70.625 184.890625 70.386719 C 186.136719 70.148438 187.390625 69.96875 188.648438 69.847656 C 189.910156 69.726562 191.175781 69.667969 192.441406 69.667969 C 193.707031 69.667969 194.972656 69.726562 196.230469 69.847656 C 197.492188 69.96875 198.746094 70.148438 199.988281 70.386719 C 201.234375 70.625 202.464844 70.921875 203.679688 71.277344 C 204.894531 71.632812 206.089844 72.042969 207.269531 72.511719 C 208.445312 72.980469 209.597656 73.503906 210.722656 74.082031 C 211.851562 74.660156 212.949219 75.289062 214.015625 75.972656 C 215.082031 76.652344 216.117188 77.382812 217.113281 78.164062 C 218.113281 78.941406 219.070312 79.769531 219.992188 80.640625 L 306.117188 166.761719 C 306.984375 167.683594 307.8125 168.640625 308.589844 169.640625 C 309.371094 170.636719 310.101562 171.671875 310.78125 172.738281 C 311.460938 173.804688 312.09375 174.902344 312.667969 176.03125 C 313.246094 177.15625 313.769531 178.308594 314.238281 179.484375 C 314.707031 180.660156 315.117188 181.859375 315.472656 183.074219 C 315.828125 184.289062 316.125 185.519531 316.363281 186.761719 C 316.601562 188.007812 316.78125 189.257812 316.902344 190.519531 C 317.019531 191.78125 317.082031 193.042969 317.082031 194.308594 C 317.082031 195.578125 317.019531 196.839844 316.902344 198.101562 C 316.78125 199.363281 316.601562 200.613281 316.363281 201.859375 C 316.125 203.101562 315.828125 204.332031 315.472656 205.546875 C 315.117188 206.761719 314.707031 207.957031 314.238281 209.136719 C 313.769531 210.3125 313.246094 211.464844 312.667969 212.589844 C 312.09375 213.71875 311.460938 214.816406 310.78125 215.882812 C 310.101562 216.949219 309.371094 217.980469 308.589844 218.980469 C 307.8125 219.976562 306.984375 220.9375 306.117188 221.855469 L 219.992188 307.980469 C 218.164062 309.75 216.179688 311.324219 214.046875 312.703125 C 211.910156 314.085938 209.660156 315.246094 207.296875 316.1875 C 204.933594 317.125 202.503906 317.828125 200.003906 318.296875 C 197.503906 318.761719 194.980469 318.980469 192.4375 318.953125 Z M 192.4375 94.632812 C 190.613281 94.570312 188.847656 94.859375 187.132812 95.492188 C 185.421875 96.125 183.894531 97.054688 182.546875 98.289062 L 96.421875 184.414062 C 95.835938 185.097656 95.316406 185.828125 94.863281 186.605469 C 94.40625 187.378906 94.023438 188.191406 93.710938 189.035156 C 93.402344 189.878906 93.164062 190.746094 93.007812 191.632812 C 92.847656 192.515625 92.769531 193.410156 92.769531 194.308594 C 92.769531 195.210938 92.847656 196.101562 93.007812 196.988281 C 93.164062 197.875 93.402344 198.742188 93.710938 199.585938 C 94.023438 200.429688 94.40625 201.238281 94.863281 202.015625 C 95.316406 202.792969 95.835938 203.523438 96.421875 204.207031 L 182.546875 290.332031 C 183.242188 290.890625 183.980469 291.386719 184.761719 291.824219 C 185.539062 292.257812 186.351562 292.621094 187.195312 292.917969 C 188.035156 293.214844 188.898438 293.4375 189.777344 293.589844 C 190.660156 293.738281 191.546875 293.816406 192.4375 293.816406 C 193.332031 293.816406 194.21875 293.738281 195.097656 293.589844 C 195.976562 293.4375 196.839844 293.214844 197.679688 292.917969 C 198.523438 292.621094 199.335938 292.257812 200.117188 291.824219 C 200.894531 291.386719 201.632812 290.890625 202.328125 290.332031 L 288.453125 204.207031 C 289.039062 203.523438 289.558594 202.792969 290.011719 202.015625 C 290.46875 201.238281 290.851562 200.429688 291.164062 199.585938 C 291.476562 198.742188 291.710938 197.875 291.867188 196.988281 C 292.027344 196.101562 292.105469 195.210938 292.105469 194.308594 C 292.105469 193.410156 292.027344 192.515625 291.867188 191.632812 C 291.710938 190.746094 291.476562 189.878906 291.164062 189.035156 C 290.851562 188.191406 290.46875 187.378906 290.011719 186.605469 C 289.558594 185.828125 289.039062 185.097656 288.453125 184.414062 L 202.328125 98.289062 C 200.980469 97.058594 199.453125 96.125 197.742188 95.492188 C 196.03125 94.859375 194.261719 94.574219 192.4375 94.632812 Z M 192.4375 94.632812 " fill-opacity="1" fill-rule="nonzero"/></svg>