<svg xmlns="http://www.w3.org/2000/svg" xmlns:xlink="http://www.w3.org/1999/xlink" width="512" zoomAndPan="magnify" viewBox="0 0 384 383.999986" height="512" preserveAspectRatio="xMidYMid meet" version="1.0"><defs><clipPath id="id1"><path d="M 96 83.417969 L 292 83.417969 L 292 300.917969 L 96 300.917969 Z M 96 83.417969 " clip-rule="nonzero"/></clipPath></defs><path fill="#ffffff" d="M 192 0 C 85.921875 0 0 85.921875 0 192 C 0 298.078125 85.921875 384 192 384 C 298.078125 384 384 298.078125 384 192 C 384 85.921875 298.078125 0 192 0 Z M 192 345.601562 C 107.136719 345.601562 38.398438 276.863281 38.398438 192 C 38.398438 107.136719 107.136719 38.398438 192 38.398438 C 276.863281 38.398438 345.601562 107.136719 345.601562 192 C 345.601562 276.863281 276.863281 345.601562 192 345.601562 Z M 192 345.601562 " fill-opacity="1" fill-rule="nonzero"/><path fill="#ffffff" d="M 243.664062 273.730469 L 221.511719 273.730469 C 217.761719 273.730469 214.714844 270.6875 214.714844 266.933594 L 214.714844 200.90625 C 214.714844 198.890625 214.714844 196.148438 207.667969 196.148438 C 187.300781 196.148438 163.089844 206.984375 162.855469 207.09375 L 147.398438 214.226562 C 145.28125 215.1875 142.832031 215.003906 140.886719 213.78125 C 138.929688 212.53125 137.75 210.375 137.75 208.054688 L 137.75 117.402344 C 137.75 113.652344 140.796875 110.605469 144.546875 110.605469 L 166.6875 110.605469 C 170.441406 110.605469 173.484375 113.652344 173.484375 117.402344 L 173.484375 166.347656 C 182.753906 163.738281 195.335938 161.09375 208.21875 161.09375 C 224.265625 161.09375 234.121094 167.554688 239.578125 172.972656 C 249.488281 182.796875 251.265625 195.847656 250.457031 201.484375 L 250.457031 266.933594 C 250.457031 270.6875 247.414062 273.730469 243.664062 273.730469 Z M 228.304688 260.136719 L 236.867188 260.136719 L 236.867188 200.90625 C 236.867188 200.179688 236.984375 199.464844 237.203125 198.785156 C 237.25 197.742188 236.648438 189.222656 230 182.617188 C 226.359375 179 219.625 174.6875 208.21875 174.6875 C 192.402344 174.6875 176.800781 179.28125 168.917969 182.019531 C 166.84375 182.742188 164.558594 182.417969 162.746094 181.140625 C 160.953125 179.859375 159.894531 177.796875 159.894531 175.601562 L 159.894531 124.199219 L 151.339844 124.199219 L 151.339844 197.441406 L 157.195312 194.742188 C 158.335938 194.226562 184.308594 182.5625 207.65625 182.5625 C 222.878906 182.5625 228.296875 192.042969 228.296875 200.914062 L 228.296875 260.136719 Z M 228.304688 260.136719 " fill-opacity="1" fill-rule="nonzero"/><path fill="#ffffff" d="M 227.597656 155.917969 L 205.449219 155.917969 C 202.867188 155.917969 200.5 154.449219 199.351562 152.128906 C 198.207031 149.808594 198.480469 147.035156 200.058594 144.980469 C 208.808594 133.570312 213.457031 127.097656 215.378906 116.214844 C 215.949219 112.972656 218.765625 110.605469 222.074219 110.605469 L 244.207031 110.605469 C 246.164062 110.605469 248.03125 111.449219 249.308594 112.917969 C 250.601562 114.394531 251.191406 116.34375 250.9375 118.28125 C 249.070312 132.5 243.582031 140.984375 232.746094 153.554688 C 231.457031 155.058594 229.574219 155.917969 227.597656 155.917969 Z M 218.875 142.324219 L 224.464844 142.324219 C 230.246094 135.453125 233.75 130.324219 235.769531 124.199219 L 227.5 124.199219 C 225.570312 131.148438 222.578125 136.796875 218.875 142.324219 Z M 218.875 142.324219 " fill-opacity="1" fill-rule="nonzero"/><path fill="#ffffff" d="M 145.089844 273.722656 C 144.101562 273.722656 143.105469 273.503906 142.179688 273.070312 C 139.808594 271.945312 138.292969 269.554688 138.292969 266.925781 L 138.292969 226.152344 C 138.292969 223.523438 139.808594 221.132812 142.179688 220.007812 C 144.554688 218.894531 147.355469 219.230469 149.394531 220.886719 L 174.316406 241.277344 C 175.902344 242.574219 176.808594 244.496094 176.808594 246.542969 C 176.808594 248.589844 175.882812 250.511719 174.316406 251.808594 L 149.382812 272.191406 C 148.144531 273.195312 146.621094 273.722656 145.089844 273.722656 Z M 151.882812 240.5 L 151.882812 252.585938 L 159.277344 246.542969 Z M 151.882812 240.5 " fill-opacity="1" fill-rule="nonzero"/><g clip-path="url(#id1)"><path fill="#ffffff" d="M 266.855469 300.917969 L 121.894531 300.917969 C 108.152344 300.917969 96.980469 289.742188 96.980469 275.996094 L 96.980469 108.339844 C 96.980469 94.59375 108.152344 83.417969 121.894531 83.417969 L 266.855469 83.417969 C 280.601562 83.417969 291.773438 94.59375 291.773438 108.339844 L 291.773438 275.996094 C 291.773438 289.742188 280.601562 300.917969 266.855469 300.917969 Z M 121.894531 97.011719 C 115.652344 97.011719 110.570312 102.097656 110.570312 108.339844 L 110.570312 275.996094 C 110.570312 282.242188 115.652344 287.324219 121.894531 287.324219 L 266.855469 287.324219 C 273.097656 287.324219 278.179688 282.242188 278.179688 275.996094 L 278.179688 108.339844 C 278.179688 102.097656 273.097656 97.011719 266.855469 97.011719 Z M 121.894531 97.011719 " fill-opacity="1" fill-rule="nonzero"/></g></svg>