<svg xmlns="http://www.w3.org/2000/svg" xmlns:xlink="http://www.w3.org/1999/xlink" width="512" zoomAndPan="magnify" viewBox="0 0 384 383.999986" height="512" preserveAspectRatio="xMidYMid meet" version="1.0"><defs><clipPath id="id1"><path d="M 62 100.300781 L 322.75 100.300781 L 322.75 284 L 62 284 Z M 62 100.300781 " clip-rule="nonzero"/></clipPath></defs><path fill="#ffffff" d="M 192 0 C 85.921875 0 0 85.921875 0 192 C 0 298.078125 85.921875 384 192 384 C 298.078125 384 384 298.078125 384 192 C 384 85.921875 298.078125 0 192 0 Z M 192 345.601562 C 107.136719 345.601562 38.398438 276.863281 38.398438 192 C 38.398438 107.136719 107.136719 38.398438 192 38.398438 C 276.863281 38.398438 345.601562 107.136719 345.601562 192 C 345.601562 276.863281 276.863281 345.601562 192 345.601562 Z M 192 345.601562 " fill-opacity="1" fill-rule="nonzero"/><g clip-path="url(#id1)"><path fill="#ffffff" d="M 196.523438 283.363281 C 161.132812 283.363281 144.109375 266.363281 131.679688 253.949219 C 129.425781 251.132812 126.855469 248.640625 123.96875 246.480469 C 121.082031 244.320312 117.96875 242.558594 114.636719 241.195312 C 107.183594 239.367188 97.144531 239.242188 85.617188 254.359375 C 85.164062 254.953125 84.667969 255.5 84.121094 256.007812 C 83.578125 256.515625 82.992188 256.972656 82.371094 257.378906 C 81.746094 257.785156 81.09375 258.132812 80.410156 258.429688 C 79.726562 258.722656 79.027344 258.957031 78.304688 259.128906 C 77.578125 259.300781 76.847656 259.410156 76.105469 259.457031 C 75.363281 259.503906 74.625 259.488281 73.886719 259.40625 C 73.148438 259.328125 72.421875 259.183594 71.707031 258.976562 C 70.992188 258.773438 70.300781 258.507812 69.632812 258.183594 C 68.960938 257.859375 68.324219 257.480469 67.722656 257.046875 C 67.117188 256.609375 66.554688 256.128906 66.035156 255.597656 C 65.511719 255.066406 65.039062 254.496094 64.617188 253.882812 C 64.191406 253.269531 63.824219 252.625 63.511719 251.949219 C 63.199219 251.273438 62.945312 250.578125 62.75 249.859375 C 62.554688 249.140625 62.425781 248.40625 62.355469 247.667969 C 62.285156 246.925781 62.28125 246.183594 62.339844 245.4375 C 62.398438 244.695312 62.515625 243.964844 62.699219 243.242188 C 72.273438 205.574219 97.59375 185.660156 135.914062 185.660156 C 171.304688 185.660156 188.328125 202.660156 200.757812 215.078125 C 203.011719 217.894531 205.582031 220.382812 208.46875 222.542969 C 211.355469 224.703125 214.46875 226.464844 217.800781 227.828125 C 225.257812 229.652344 235.292969 229.785156 246.820312 214.664062 C 247.273438 214.074219 247.769531 213.523438 248.316406 213.015625 C 248.859375 212.511719 249.445312 212.054688 250.066406 211.648438 C 250.691406 211.242188 251.34375 210.890625 252.027344 210.597656 C 252.710938 210.304688 253.410156 210.070312 254.136719 209.898438 C 254.859375 209.726562 255.589844 209.613281 256.332031 209.566406 C 257.074219 209.519531 257.8125 209.539062 258.550781 209.617188 C 259.289062 209.699219 260.015625 209.84375 260.730469 210.046875 C 261.445312 210.253906 262.136719 210.519531 262.804688 210.84375 C 263.476562 211.167969 264.113281 211.546875 264.714844 211.980469 C 265.320312 212.414062 265.882812 212.898438 266.402344 213.429688 C 266.925781 213.960938 267.398438 214.53125 267.820312 215.144531 C 268.246094 215.753906 268.613281 216.398438 268.925781 217.074219 C 269.238281 217.75 269.492188 218.449219 269.6875 219.167969 C 269.882812 219.886719 270.011719 220.617188 270.082031 221.359375 C 270.152344 222.101562 270.15625 222.84375 270.097656 223.585938 C 270.039062 224.328125 269.921875 225.0625 269.738281 225.785156 C 260.164062 263.453125 234.84375 283.363281 196.523438 283.363281 Z M 115.394531 214.84375 C 117.21875 215.101562 119.027344 215.453125 120.820312 215.898438 C 126.511719 217.699219 131.835938 220.265625 136.796875 223.59375 C 141.757812 226.925781 146.152344 230.886719 149.980469 235.476562 C 161.242188 246.714844 171.863281 257.3125 196.523438 257.3125 C 203.542969 257.457031 210.382812 256.417969 217.042969 254.183594 C 215.21875 253.921875 213.410156 253.570312 211.621094 253.128906 C 205.925781 251.328125 200.601562 248.761719 195.640625 245.433594 C 190.679688 242.101562 186.285156 238.140625 182.457031 233.550781 C 171.195312 222.3125 160.574219 211.714844 135.914062 211.714844 C 128.894531 211.566406 122.054688 212.609375 115.394531 214.84375 Z M 248.484375 198.6875 C 213.09375 198.6875 196.058594 181.675781 183.617188 169.253906 C 181.367188 166.4375 178.800781 163.953125 175.917969 161.796875 C 173.035156 159.640625 169.925781 157.878906 166.59375 156.519531 C 159.144531 154.6875 149.105469 154.566406 137.574219 169.683594 C 137.125 170.277344 136.628906 170.824219 136.082031 171.332031 C 135.539062 171.839844 134.953125 172.292969 134.332031 172.699219 C 133.707031 173.105469 133.054688 173.457031 132.371094 173.75 C 131.6875 174.046875 130.984375 174.277344 130.261719 174.453125 C 129.539062 174.625 128.808594 174.734375 128.066406 174.78125 C 127.324219 174.828125 126.585938 174.8125 125.847656 174.730469 C 125.105469 174.648438 124.378906 174.507812 123.667969 174.300781 C 122.953125 174.097656 122.261719 173.832031 121.589844 173.507812 C 120.921875 173.179688 120.285156 172.800781 119.683594 172.367188 C 119.078125 171.933594 118.515625 171.453125 117.996094 170.921875 C 117.472656 170.390625 117 169.816406 116.578125 169.207031 C 116.152344 168.59375 115.785156 167.949219 115.472656 167.273438 C 115.15625 166.597656 114.902344 165.902344 114.710938 165.179688 C 114.515625 164.460938 114.382812 163.730469 114.316406 162.988281 C 114.246094 162.246094 114.242188 161.503906 114.300781 160.761719 C 114.355469 160.019531 114.476562 159.285156 114.660156 158.5625 C 124.234375 120.894531 149.550781 100.984375 187.875 100.984375 C 223.265625 100.984375 240.289062 117.984375 252.71875 130.398438 C 254.972656 133.21875 257.542969 135.707031 260.429688 137.867188 C 263.316406 140.027344 266.425781 141.789062 269.761719 143.152344 C 277.21875 144.976562 287.253906 145.105469 298.78125 129.988281 C 299.234375 129.398438 299.730469 128.847656 300.277344 128.339844 C 300.820312 127.832031 301.40625 127.378906 302.027344 126.972656 C 302.652344 126.566406 303.304688 126.214844 303.988281 125.921875 C 304.667969 125.628906 305.371094 125.394531 306.09375 125.222656 C 306.816406 125.046875 307.550781 124.9375 308.292969 124.890625 C 309.035156 124.84375 309.773438 124.859375 310.511719 124.941406 C 311.25 125.023438 311.976562 125.164062 312.691406 125.371094 C 313.40625 125.578125 314.097656 125.839844 314.765625 126.164062 C 315.433594 126.492188 316.070312 126.871094 316.675781 127.304688 C 317.28125 127.738281 317.84375 128.21875 318.363281 128.75 C 318.886719 129.28125 319.359375 129.855469 319.78125 130.464844 C 320.207031 131.078125 320.574219 131.722656 320.886719 132.398438 C 321.199219 133.074219 321.453125 133.773438 321.648438 134.492188 C 321.84375 135.210938 321.972656 135.941406 322.042969 136.683594 C 322.113281 137.425781 322.117188 138.167969 322.058594 138.910156 C 322 139.652344 321.878906 140.386719 321.695312 141.109375 C 312.125 178.777344 286.804688 198.6875 248.484375 198.6875 Z M 167.355469 130.164062 C 169.179688 130.425781 170.988281 130.777344 172.777344 131.21875 C 178.472656 133.019531 183.796875 135.585938 188.757812 138.917969 C 193.71875 142.246094 198.113281 146.207031 201.941406 150.800781 C 212.703125 161.5625 223.824219 172.632812 248.484375 172.632812 C 255.503906 172.78125 262.34375 171.738281 269.003906 169.507812 C 267.175781 169.246094 265.371094 168.894531 263.578125 168.453125 C 257.886719 166.652344 252.5625 164.085938 247.601562 160.753906 C 242.640625 157.425781 238.246094 153.464844 234.417969 148.871094 C 223.15625 137.636719 212.535156 127.039062 187.875 127.039062 C 180.855469 126.890625 174.015625 127.933594 167.355469 130.164062 Z M 167.355469 130.164062 " fill-opacity="1" fill-rule="nonzero"/></g></svg>