<svg xmlns="http://www.w3.org/2000/svg" xmlns:xlink="http://www.w3.org/1999/xlink" width="512" zoomAndPan="magnify" viewBox="0 0 384 383.999986" height="512" preserveAspectRatio="xMidYMid meet" version="1.0"><defs><clipPath id="id1"><path d="M 93.003906 77.851562 L 291 77.851562 L 291 305.851562 L 93.003906 305.851562 Z M 93.003906 77.851562 " clip-rule="nonzero"/></clipPath></defs><path fill="#ffffff" d="M 192 0 C 85.921875 0 0 85.921875 0 192 C 0 298.078125 85.921875 384 192 384 C 298.078125 384 384 298.078125 384 192 C 384 85.921875 298.078125 0 192 0 Z M 192 345.601562 C 107.136719 345.601562 38.398438 276.863281 38.398438 192 C 38.398438 107.136719 107.136719 38.398438 192 38.398438 C 276.863281 38.398438 345.601562 107.136719 345.601562 192 C 345.601562 276.863281 276.863281 345.601562 192 345.601562 Z M 192 345.601562 " fill-opacity="1" fill-rule="nonzero"/><path fill="#ffffff" d="M 156.605469 200.230469 C 156.207031 199.925781 155.761719 199.710938 155.273438 199.582031 C 154.785156 199.453125 154.292969 199.421875 153.792969 199.488281 C 153.292969 199.554688 152.824219 199.714844 152.386719 199.96875 C 151.953125 200.222656 151.582031 200.546875 151.273438 200.949219 L 128.09375 231.347656 C 127.839844 231.679688 127.644531 232.042969 127.511719 232.4375 C 127.378906 232.832031 127.3125 233.238281 127.3125 233.652344 C 127.3125 234.070312 127.378906 234.472656 127.511719 234.867188 C 127.644531 235.261719 127.839844 235.625 128.09375 235.957031 L 151.273438 266.355469 C 151.582031 266.757812 151.953125 267.082031 152.386719 267.335938 C 152.824219 267.589844 153.292969 267.75 153.792969 267.816406 C 154.292969 267.882812 154.785156 267.855469 155.273438 267.726562 C 155.761719 267.597656 156.207031 267.378906 156.605469 267.074219 C 157.007812 266.769531 157.335938 266.398438 157.589844 265.960938 C 157.84375 265.527344 158.003906 265.058594 158.070312 264.5625 C 158.140625 264.0625 158.109375 263.570312 157.980469 263.082031 C 157.851562 262.59375 157.632812 262.148438 157.328125 261.75 L 135.925781 233.652344 L 157.328125 205.558594 C 157.636719 205.15625 157.851562 204.710938 157.980469 204.222656 C 158.109375 203.738281 158.140625 203.242188 158.070312 202.746094 C 158.003906 202.246094 157.84375 201.777344 157.589844 201.34375 C 157.335938 200.90625 157.007812 200.539062 156.605469 200.230469 Z M 156.605469 200.230469 " fill-opacity="1" fill-rule="nonzero"/><path fill="#ffffff" d="M 217.441406 200.945312 C 217.132812 200.542969 216.761719 200.21875 216.324219 199.964844 C 215.890625 199.710938 215.421875 199.550781 214.921875 199.484375 C 214.421875 199.417969 213.925781 199.449219 213.4375 199.582031 C 212.953125 199.710938 212.507812 199.929688 212.105469 200.234375 C 211.707031 200.539062 211.378906 200.910156 211.125 201.347656 C 210.871094 201.785156 210.710938 202.25 210.644531 202.75 C 210.578125 203.25 210.609375 203.742188 210.742188 204.230469 C 210.871094 204.71875 211.089844 205.160156 211.394531 205.5625 L 232.878906 233.652344 L 211.394531 261.746094 C 211.089844 262.144531 210.871094 262.589844 210.742188 263.074219 C 210.609375 263.5625 210.578125 264.054688 210.644531 264.554688 C 210.710938 265.054688 210.871094 265.523438 211.125 265.957031 C 211.378906 266.394531 211.707031 266.765625 212.105469 267.070312 C 212.507812 267.378906 212.953125 267.59375 213.4375 267.726562 C 213.925781 267.855469 214.421875 267.886719 214.921875 267.820312 C 215.421875 267.753906 215.890625 267.59375 216.324219 267.339844 C 216.761719 267.089844 217.132812 266.761719 217.441406 266.363281 L 240.691406 235.960938 C 240.945312 235.628906 241.136719 235.265625 241.269531 234.871094 C 241.40625 234.476562 241.472656 234.070312 241.472656 233.652344 C 241.472656 233.234375 241.40625 232.828125 241.269531 232.433594 C 241.136719 232.039062 240.945312 231.675781 240.691406 231.34375 Z M 217.441406 200.945312 " fill-opacity="1" fill-rule="nonzero"/><path fill="#ffffff" d="M 191.898438 199.539062 C 191.40625 199.429688 190.910156 199.421875 190.414062 199.511719 C 189.917969 199.601562 189.457031 199.78125 189.03125 200.054688 C 188.609375 200.324219 188.253906 200.667969 187.964844 201.082031 C 187.675781 201.496094 187.476562 201.949219 187.371094 202.441406 L 174.054688 263.242188 C 173.988281 263.488281 173.953125 263.738281 173.9375 263.992188 C 173.925781 264.25 173.9375 264.503906 173.976562 264.753906 C 174.015625 265.007812 174.078125 265.253906 174.167969 265.492188 C 174.253906 265.730469 174.363281 265.960938 174.5 266.175781 C 174.632812 266.394531 174.789062 266.597656 174.960938 266.78125 C 175.136719 266.96875 175.328125 267.136719 175.535156 267.28125 C 175.746094 267.429688 175.964844 267.554688 176.199219 267.660156 C 176.433594 267.761719 176.675781 267.839844 176.925781 267.894531 C 177.175781 267.949219 177.425781 267.980469 177.683594 267.984375 C 177.9375 267.988281 178.191406 267.964844 178.441406 267.917969 C 178.695312 267.871094 178.9375 267.800781 179.175781 267.703125 C 179.410156 267.605469 179.636719 267.488281 179.847656 267.347656 C 180.0625 267.207031 180.257812 267.042969 180.4375 266.863281 C 180.617188 266.683594 180.777344 266.484375 180.917969 266.273438 C 181.058594 266.058594 181.175781 265.832031 181.269531 265.597656 C 181.367188 265.359375 181.4375 265.117188 181.480469 264.863281 L 194.800781 204.066406 C 194.910156 203.574219 194.917969 203.078125 194.828125 202.582031 C 194.742188 202.085938 194.558594 201.625 194.289062 201.203125 C 194.015625 200.777344 193.671875 200.421875 193.257812 200.132812 C 192.84375 199.84375 192.390625 199.644531 191.898438 199.539062 Z M 191.898438 199.539062 " fill-opacity="1" fill-rule="nonzero"/><g clip-path="url(#id1)"><path fill="#ffffff" d="M 287.132812 77.851562 L 112.097656 77.851562 C 111.589844 77.851562 111.105469 77.949219 110.640625 78.140625 C 110.171875 78.335938 109.761719 78.609375 109.40625 78.964844 C 109.046875 79.320312 108.773438 79.734375 108.582031 80.199219 C 108.386719 80.664062 108.289062 81.148438 108.289062 81.652344 L 108.289062 93.054688 L 96.875 93.054688 C 96.371094 93.054688 95.886719 93.148438 95.417969 93.34375 C 94.953125 93.535156 94.542969 93.808594 94.183594 94.164062 C 93.828125 94.523438 93.554688 94.933594 93.359375 95.398438 C 93.167969 95.863281 93.070312 96.347656 93.070312 96.851562 L 93.070312 302.054688 C 93.070312 302.558594 93.167969 303.042969 93.359375 303.507812 C 93.554688 303.972656 93.828125 304.382812 94.183594 304.738281 C 94.542969 305.097656 94.953125 305.371094 95.417969 305.5625 C 95.886719 305.757812 96.371094 305.851562 96.875 305.851562 L 271.910156 305.851562 C 272.414062 305.851562 272.902344 305.757812 273.367188 305.5625 C 273.832031 305.371094 274.246094 305.097656 274.601562 304.738281 C 274.957031 304.382812 275.234375 303.972656 275.425781 303.507812 C 275.621094 303.042969 275.714844 302.558594 275.714844 302.054688 L 275.714844 290.652344 L 287.132812 290.652344 C 287.636719 290.652344 288.121094 290.554688 288.585938 290.363281 C 289.054688 290.171875 289.464844 289.894531 289.820312 289.539062 C 290.179688 289.183594 290.453125 288.773438 290.648438 288.308594 C 290.839844 287.839844 290.9375 287.355469 290.9375 286.851562 L 290.9375 81.652344 C 290.9375 81.148438 290.839844 80.664062 290.648438 80.199219 C 290.453125 79.734375 290.179688 79.320312 289.820312 78.964844 C 289.464844 78.609375 289.054688 78.335938 288.585938 78.140625 C 288.121094 77.949219 287.636719 77.851562 287.132812 77.851562 Z M 112.097656 112.054688 C 112.097656 111.550781 112.191406 111.0625 112.386719 110.597656 C 112.578125 110.132812 112.855469 109.722656 113.210938 109.367188 C 113.566406 109.007812 113.980469 108.734375 114.445312 108.542969 C 114.910156 108.347656 115.398438 108.253906 115.902344 108.253906 C 116.40625 108.253906 116.890625 108.347656 117.355469 108.542969 C 117.824219 108.734375 118.234375 109.007812 118.59375 109.367188 C 118.949219 109.722656 119.222656 110.132812 119.417969 110.597656 C 119.609375 111.0625 119.707031 111.550781 119.707031 112.054688 L 119.707031 127.253906 L 134.925781 127.253906 L 134.925781 112.054688 C 134.925781 111.550781 135.023438 111.0625 135.214844 110.597656 C 135.410156 110.132812 135.683594 109.722656 136.042969 109.367188 C 136.398438 109.007812 136.808594 108.734375 137.277344 108.542969 C 137.742188 108.347656 138.226562 108.253906 138.730469 108.253906 C 139.238281 108.253906 139.722656 108.347656 140.1875 108.542969 C 140.652344 108.734375 141.066406 109.007812 141.421875 109.367188 C 141.777344 109.722656 142.054688 110.132812 142.246094 110.597656 C 142.441406 111.0625 142.535156 111.550781 142.535156 112.054688 L 142.535156 150.054688 C 142.535156 150.558594 142.441406 151.042969 142.246094 151.507812 C 142.054688 151.972656 141.777344 152.382812 141.421875 152.738281 C 141.066406 153.097656 140.652344 153.371094 140.1875 153.5625 C 139.722656 153.757812 139.238281 153.851562 138.730469 153.851562 C 138.226562 153.851562 137.742188 153.757812 137.277344 153.5625 C 136.808594 153.371094 136.398438 153.097656 136.042969 152.738281 C 135.683594 152.382812 135.410156 151.972656 135.214844 151.507812 C 135.023438 151.042969 134.925781 150.558594 134.925781 150.054688 L 134.925781 134.851562 L 119.707031 134.851562 L 119.707031 150.054688 C 119.707031 150.558594 119.609375 151.042969 119.417969 151.507812 C 119.222656 151.972656 118.949219 152.382812 118.59375 152.738281 C 118.234375 153.097656 117.824219 153.371094 117.355469 153.5625 C 116.890625 153.757812 116.40625 153.851562 115.902344 153.851562 C 115.398438 153.851562 114.910156 153.757812 114.445312 153.5625 C 113.980469 153.371094 113.566406 153.097656 113.210938 152.738281 C 112.855469 152.382812 112.578125 151.972656 112.386719 151.507812 C 112.191406 151.042969 112.097656 150.558594 112.097656 150.054688 Z M 268.105469 298.253906 L 100.679688 298.253906 L 100.679688 169.054688 L 268.105469 169.054688 Z M 153.953125 115.851562 C 153.449219 115.851562 152.960938 115.757812 152.496094 115.5625 C 152.03125 115.371094 151.617188 115.097656 151.261719 114.738281 C 150.90625 114.382812 150.628906 113.972656 150.4375 113.507812 C 150.242188 113.042969 150.148438 112.558594 150.148438 112.054688 C 150.148438 111.550781 150.242188 111.0625 150.4375 110.597656 C 150.628906 110.132812 150.90625 109.722656 151.261719 109.367188 C 151.617188 109.007812 152.03125 108.734375 152.496094 108.542969 C 152.960938 108.347656 153.449219 108.253906 153.953125 108.253906 L 176.78125 108.253906 C 177.289062 108.253906 177.773438 108.347656 178.238281 108.542969 C 178.707031 108.734375 179.117188 109.007812 179.472656 109.367188 C 179.832031 109.722656 180.105469 110.132812 180.296875 110.597656 C 180.492188 111.0625 180.589844 111.550781 180.589844 112.054688 C 180.589844 112.558594 180.492188 113.042969 180.296875 113.507812 C 180.105469 113.972656 179.832031 114.382812 179.472656 114.738281 C 179.117188 115.097656 178.707031 115.371094 178.238281 115.5625 C 177.773438 115.757812 177.289062 115.851562 176.78125 115.851562 L 169.171875 115.851562 L 169.171875 150.054688 C 169.171875 150.558594 169.074219 151.042969 168.882812 151.507812 C 168.691406 151.972656 168.414062 152.382812 168.058594 152.738281 C 167.703125 153.097656 167.289062 153.371094 166.824219 153.5625 C 166.359375 153.757812 165.871094 153.851562 165.367188 153.851562 C 164.863281 153.851562 164.378906 153.757812 163.910156 153.5625 C 163.445312 153.371094 163.035156 153.097656 162.675781 152.738281 C 162.320312 152.382812 162.046875 151.972656 161.851562 151.507812 C 161.660156 151.042969 161.5625 150.558594 161.5625 150.054688 L 161.5625 115.851562 Z M 206.691406 132.992188 C 205.320312 135.328125 201.515625 135.328125 200.144531 132.992188 L 195.808594 125.769531 L 195.808594 150.054688 C 195.808594 150.558594 195.710938 151.042969 195.519531 151.507812 C 195.324219 151.972656 195.050781 152.382812 194.695312 152.738281 C 194.335938 153.097656 193.925781 153.371094 193.460938 153.5625 C 192.992188 153.757812 192.507812 153.851562 192.003906 153.851562 C 191.5 153.851562 191.011719 153.757812 190.546875 153.5625 C 190.082031 153.371094 189.667969 153.097656 189.3125 152.738281 C 188.957031 152.382812 188.679688 151.972656 188.488281 151.507812 C 188.292969 151.042969 188.199219 150.558594 188.199219 150.054688 L 188.199219 112.054688 C 188.199219 111.636719 188.265625 111.230469 188.398438 110.835938 C 188.53125 110.441406 188.726562 110.078125 188.976562 109.75 C 189.230469 109.417969 189.53125 109.136719 189.875 108.902344 C 190.222656 108.671875 190.59375 108.5 190.996094 108.390625 C 191.398438 108.277344 191.808594 108.234375 192.222656 108.261719 C 192.640625 108.285156 193.042969 108.375 193.429688 108.53125 C 193.816406 108.6875 194.167969 108.898438 194.480469 109.171875 C 194.796875 109.441406 195.0625 109.757812 195.277344 110.113281 L 203.417969 123.679688 L 211.5625 110.113281 C 211.773438 109.757812 212.039062 109.441406 212.355469 109.171875 C 212.671875 108.898438 213.023438 108.6875 213.410156 108.53125 C 213.796875 108.375 214.195312 108.285156 214.613281 108.261719 C 215.027344 108.234375 215.4375 108.277344 215.839844 108.390625 C 216.242188 108.5 216.617188 108.671875 216.960938 108.902344 C 217.308594 109.136719 217.605469 109.417969 217.859375 109.75 C 218.113281 110.078125 218.304688 110.441406 218.4375 110.835938 C 218.570312 111.230469 218.640625 111.636719 218.640625 112.054688 L 218.640625 150.054688 C 218.640625 150.558594 218.542969 151.042969 218.347656 151.507812 C 218.15625 151.972656 217.882812 152.382812 217.523438 152.738281 C 217.167969 153.097656 216.757812 153.371094 216.289062 153.5625 C 215.824219 153.757812 215.339844 153.851562 214.835938 153.851562 C 214.328125 153.851562 213.84375 153.757812 213.378906 153.5625 C 212.910156 153.371094 212.5 153.097656 212.144531 152.738281 C 211.785156 152.382812 211.511719 151.972656 211.320312 151.507812 C 211.125 151.042969 211.027344 150.558594 211.027344 150.054688 L 211.027344 125.769531 Z M 237.664062 127.253906 L 237.664062 106.011719 L 262.742188 131.054688 L 241.46875 131.054688 C 240.964844 131.054688 240.480469 130.957031 240.011719 130.761719 C 239.546875 130.570312 239.136719 130.296875 238.777344 129.941406 C 238.421875 129.582031 238.148438 129.171875 237.953125 128.707031 C 237.761719 128.242188 237.664062 127.757812 237.664062 127.253906 Z M 283.324219 283.054688 L 275.714844 283.054688 L 275.714844 134.851562 C 275.707031 133.808594 275.339844 132.90625 274.613281 132.15625 L 236.5625 94.15625 C 235.808594 93.429688 234.90625 93.058594 233.859375 93.054688 L 115.902344 93.054688 L 115.902344 85.453125 L 283.324219 85.453125 Z M 283.324219 283.054688 " fill-opacity="1" fill-rule="nonzero"/></g></svg>